<svg width="65" height="65" viewBox="0 0 65 65" fill="none" xmlns="http://www.w3.org/2000/svg">
<circle cx="32.5" cy="32.5" r="32.5" fill="#0061AE"/>
<path d="M49.956 27.3506L48.8651 25.8883V33.208C48.8628 34.0489 48.6054 34.8692 48.1274 35.5591C47.6493 36.249 46.9733 36.7757 46.1897 37.0688L33.921 41.6353C32.9995 41.9787 31.9858 41.9764 31.0659 41.6286L18.8092 37.0672C18.0265 36.7737 17.3514 36.247 16.8741 35.5574C16.3968 34.8679 16.1399 34.0482 16.1378 33.208V25.8883L15.0469 27.3506C14.8696 27.5879 14.7739 27.8768 14.7742 28.1736V47.3782C14.7741 47.5583 14.8093 47.7368 14.8778 47.9032C14.9462 48.0697 15.0467 48.221 15.1733 48.3484C15.3 48.4758 15.4503 48.5768 15.6158 48.6457C15.7813 48.7146 15.9587 48.75 16.1378 48.7499H48.8651C49.0442 48.75 49.2215 48.7146 49.387 48.6457C49.5525 48.5768 49.7029 48.4758 49.8295 48.3484C49.9562 48.221 50.0566 48.0697 50.1251 47.9032C50.1936 47.7368 50.2288 47.5583 50.2287 47.3782V28.1736C50.229 27.8768 50.1332 27.5879 49.956 27.3506Z" fill="white"/>
<path d="M19.7559 34.4938L32.0287 39.0618C32.3336 39.1761 32.6693 39.1761 32.9742 39.0618L45.2469 34.4938C45.5082 34.3967 45.7336 34.2214 45.8929 33.9915C46.0522 33.7616 46.1376 33.4882 46.1378 33.208V11.7126C46.1379 11.5324 46.1027 11.354 46.0342 11.1875C45.9657 11.021 45.8653 10.8698 45.7386 10.7424C45.612 10.615 45.4616 10.5139 45.2961 10.445C45.1306 10.3761 44.9533 10.3407 44.7741 10.3408H20.2287C20.0496 10.3407 19.8722 10.3761 19.7067 10.445C19.5413 10.5139 19.3909 10.615 19.2642 10.7424C19.1376 10.8698 19.0371 11.021 18.9687 11.1875C18.9002 11.354 18.865 11.5324 18.8651 11.7126V33.208C18.8652 33.4882 18.9507 33.7616 19.11 33.9915C19.2692 34.2214 19.4947 34.3967 19.7559 34.4938ZM28.4105 18.5713H39.3196C39.6813 18.5713 40.0281 18.7159 40.2838 18.9731C40.5396 19.2304 40.6832 19.5793 40.6832 19.9431C40.6832 20.3069 40.5396 20.6558 40.2838 20.9131C40.0281 21.1703 39.6813 21.3149 39.3196 21.3149H28.4105C28.0489 21.3149 27.702 21.1703 27.4463 20.9131C27.1906 20.6558 27.0469 20.3069 27.0469 19.9431C27.0469 19.5793 27.1906 19.2304 27.4463 18.9731C27.702 18.7159 28.0489 18.5713 28.4105 18.5713ZM25.6833 25.4301H39.3196C39.6813 25.4301 40.0281 25.5746 40.2838 25.8319C40.5396 26.0891 40.6832 26.4381 40.6832 26.8019C40.6832 27.1657 40.5396 27.5146 40.2838 27.7718C40.0281 28.0291 39.6813 28.1736 39.3196 28.1736H25.6833C25.3216 28.1736 24.9747 28.0291 24.719 27.7718C24.4633 27.5146 24.3196 27.1657 24.3196 26.8019C24.3196 26.4381 24.4633 26.0891 24.719 25.8319C24.9747 25.5746 25.3216 25.4301 25.6833 25.4301Z" fill="white"/>
</svg>
