<svg width="60" height="60" viewBox="0 0 60 60" fill="none" xmlns="http://www.w3.org/2000/svg">
<g clip-path="url(#clip0_1772_37045)">
<path d="M57.8723 20.1369C56.5659 17.1009 53.919 13.8208 51.8416 12.7857C53.322 15.5549 54.3487 18.5283 54.8842 21.6006L54.891 21.65C51.4937 13.4614 45.7324 10.1616 41.0254 2.9719C40.7866 2.60928 40.5479 2.24344 40.3159 1.86099C40.1829 1.64022 40.077 1.4424 39.9849 1.26109C39.7906 0.895154 39.6404 0.509383 39.5381 0.110524C39.5381 0.0709598 39.5074 0.0412618 39.4699 0.0347182C39.4529 0.031396 39.4324 0.031396 39.4119 0.0347182C39.4085 0.0347182 39.4016 0.0412618 39.3983 0.0445839C39.3948 0.0445839 39.3846 0.0545504 39.3778 0.0545504L39.3881 0.0348188C31.8395 4.307 29.2779 12.2154 29.0427 16.1713C26.0273 16.3723 23.145 17.4438 20.771 19.2535C20.5219 19.0492 20.2661 18.8613 19.9966 18.6865C19.3111 16.3691 19.2837 13.9197 19.9114 11.5858C17.1383 12.8846 14.6755 14.7241 12.6767 16.9888H12.6631C11.4727 15.5284 11.5544 10.7188 11.6228 9.71334C11.2714 9.85177 10.9338 10.0232 10.6199 10.2276C9.56932 10.9528 8.58693 11.767 7.68307 12.6604C6.65297 13.6691 5.71495 14.757 4.87245 15.9174V15.9207V15.9141C2.94193 18.5612 1.57068 21.5512 0.840678 24.7159L0.79974 24.907C0.741719 25.1641 0.540469 26.4433 0.502969 26.7201C0.502969 26.7433 0.499532 26.763 0.496095 26.7827C0.236824 28.1047 0.0730729 29.4431 0.0117188 30.788V30.9364C0.0253646 46.9774 13.4954 59.9723 30.0932 59.9558C44.7128 59.9426 57.2004 49.7695 59.6835 35.845C59.7346 35.4692 59.7756 35.1 59.8199 34.7209C60.4409 29.7825 59.7688 24.7652 57.8723 20.1369ZM23.2338 42.8698C23.3736 42.9356 23.5066 43.005 23.6499 43.0676L23.6704 43.0808C23.5237 43.0148 23.377 42.9456 23.2338 42.8698ZM54.8945 21.6566V21.6302L54.9013 21.6599L54.8945 21.6566Z" fill="url(#paint0_linear_1772_37045)"/>
<path d="M57.8721 20.1359C56.5656 17.0998 53.9187 13.8198 51.8413 12.7847C53.3218 15.5538 54.3484 18.5272 54.8839 21.5995V21.6259L54.8907 21.6556C57.2068 28.0608 56.8725 35.0856 53.9561 41.2601C50.511 48.4036 42.1745 55.7252 29.1241 55.3691C15.0231 54.9834 2.60363 44.8696 0.28071 31.6242C-0.142311 29.5342 0.28071 28.4761 0.492168 26.7783C0.205606 28.0969 0.0419596 29.4387 0.0112305 30.7869V30.9353C0.0248763 46.9762 13.4949 59.9711 30.0927 59.9546C44.7123 59.9414 57.1999 49.7683 59.683 35.8438C59.7342 35.4681 59.7751 35.0988 59.8195 34.7197C60.4406 29.7815 59.7685 24.7641 57.8721 20.1359Z" fill="url(#paint1_radial_1772_37045)"/>
<path d="M57.8721 20.1359C56.5656 17.0998 53.9187 13.8198 51.8413 12.7847C53.3218 15.5538 54.3484 18.5272 54.8839 21.5995V21.6259L54.8907 21.6556C57.2068 28.0608 56.8725 35.0856 53.9561 41.2601C50.511 48.4036 42.1745 55.7252 29.1241 55.3691C15.0231 54.9834 2.60363 44.8696 0.28071 31.6242C-0.142311 29.5342 0.28071 28.4761 0.492168 26.7783C0.205606 28.0969 0.0419596 29.4387 0.0112305 30.7869V30.9353C0.0248763 46.9762 13.4949 59.9711 30.0927 59.9546C44.7123 59.9414 57.1999 49.7683 59.683 35.8438C59.7342 35.4681 59.7751 35.0988 59.8195 34.7197C60.4406 29.7815 59.7685 24.7641 57.8721 20.1359Z" fill="url(#paint2_radial_1772_37045)"/>
<path d="M43.2666 23.5477C43.3314 23.5905 43.3929 23.6367 43.4542 23.6795C42.7005 22.3873 41.759 21.2006 40.6641 20.1622C31.3214 11.1331 38.215 0.587483 39.3781 0.0501008L39.3884 0.0336914C31.8398 4.30587 29.2782 12.2143 29.043 16.1702C29.3942 16.1471 29.7422 16.1174 30.1003 16.1174C35.5509 16.1272 40.5788 18.9656 43.2666 23.5477Z" fill="url(#paint3_radial_1772_37045)"/>
<path d="M30.1173 25.3508C30.0661 26.0728 27.426 28.565 26.5017 28.565C17.9572 28.565 16.5688 33.5626 16.5688 33.5626C16.9475 37.7689 19.9799 41.2335 23.6467 43.0664C23.8137 43.1488 23.9844 43.2246 24.1549 43.3004C24.4482 43.4257 24.7417 43.5444 25.0384 43.6499C26.2971 44.0817 27.6137 44.3257 28.9474 44.3784C43.925 45.0575 46.8277 27.0684 36.0183 21.8467C38.5698 21.5269 41.1519 22.1335 43.2633 23.5476C40.5788 18.9655 35.551 16.1272 30.097 16.1172C29.7388 16.1172 29.3909 16.1469 29.0396 16.1699C26.0243 16.371 23.142 17.4424 20.768 19.2522C21.2251 19.6279 21.7434 20.129 22.8317 21.1641C24.8746 23.1059 30.107 25.1168 30.1173 25.3508Z" fill="url(#paint4_radial_1772_37045)"/>
<path d="M30.1173 25.3508C30.0661 26.0728 27.426 28.565 26.5017 28.565C17.9572 28.565 16.5688 33.5626 16.5688 33.5626C16.9475 37.7689 19.9799 41.2335 23.6467 43.0664C23.8137 43.1488 23.9844 43.2246 24.1549 43.3004C24.4482 43.4257 24.7417 43.5444 25.0384 43.6499C26.2971 44.0817 27.6137 44.3257 28.9474 44.3784C43.925 45.0575 46.8277 27.0684 36.0183 21.8467C38.5698 21.5269 41.1519 22.1335 43.2633 23.5476C40.5788 18.9655 35.551 16.1272 30.097 16.1172C29.7388 16.1172 29.3909 16.1469 29.0396 16.1699C26.0243 16.371 23.142 17.4424 20.768 19.2522C21.2251 19.6279 21.7434 20.129 22.8317 21.1641C24.8746 23.1059 30.107 25.1168 30.1173 25.3508Z" fill="url(#paint5_radial_1772_37045)"/>
<path d="M19.3696 18.2844C19.6117 18.4327 19.813 18.5646 19.9903 18.6832C19.3048 16.3657 19.2774 13.9164 19.9051 11.5825C17.132 12.8814 14.6692 14.7208 12.6704 16.9855C12.8204 16.9823 17.1798 16.9064 19.3696 18.2844Z" fill="url(#paint6_radial_1772_37045)"/>
<path d="M0.285374 31.6247C2.60485 44.8701 15.0242 54.9806 29.1252 55.3696C42.1756 55.7255 50.512 48.404 53.9572 41.2604C56.8736 35.0861 57.2079 28.0644 54.8918 21.656V21.6296C54.8918 21.6065 54.8885 21.5967 54.8918 21.6033L54.8986 21.6527C55.9663 28.3808 52.4257 34.8981 46.8896 39.3056L46.8726 39.3418C36.087 47.8304 25.7654 44.4647 23.6779 43.09C23.5312 43.0242 23.388 42.9516 23.2413 42.879C16.9548 39.9747 14.3557 34.4366 14.9116 29.6896C11.8622 29.7325 9.07194 28.0381 7.79287 25.3612C11.1493 23.3735 15.3311 23.2119 18.8411 24.9327C22.3988 26.4952 26.4511 26.6469 30.1246 25.3612C30.1143 25.1239 24.8819 23.113 22.8422 21.1714C21.7541 20.1331 21.2356 19.6351 20.7785 19.2594C20.5294 19.0551 20.2736 18.8672 20.0041 18.6924C19.8268 18.5737 19.6255 18.4484 19.3834 18.2935C17.1901 16.9155 12.8309 16.9913 12.6877 16.9947H12.674C11.4835 15.5343 11.5654 10.7247 11.6336 9.71924C11.2824 9.85766 10.9446 10.0291 10.6308 10.2335C9.58027 10.9587 8.59787 11.7729 7.69402 12.6663C6.66048 13.6717 5.71902 14.7595 4.87308 15.9167V15.9199V15.9133C2.94256 18.5605 1.57131 21.5504 0.841312 24.7151C0.827667 24.7745 -0.239938 29.2842 0.285374 31.6247Z" fill="url(#paint7_radial_1772_37045)"/>
<path d="M40.6645 20.163C41.7629 21.2048 42.7009 22.3916 43.4547 23.6838C43.6184 23.8058 43.7753 23.9245 43.9049 24.0398C50.72 30.1087 47.1488 38.6895 46.8827 39.3027C52.4188 34.8952 55.9559 28.3781 54.8917 21.6498C51.491 13.458 45.7298 10.1582 41.0226 2.96851C40.7839 2.60589 40.545 2.23995 40.3131 1.8576C40.18 1.63673 40.0743 1.43891 39.9822 1.2576C39.7877 0.891661 39.6376 0.50599 39.5354 0.107131C39.5354 0.0674663 39.5046 0.037869 39.4671 0.0312247C39.4501 0.0280032 39.4297 0.0280032 39.4091 0.0312247C39.4058 0.0312247 39.3989 0.0377683 39.3955 0.0411911C39.3921 0.0411911 39.3818 0.0510569 39.375 0.0510569C38.2154 0.588339 31.3218 11.1339 40.6645 20.163Z" fill="url(#paint8_radial_1772_37045)"/>
<path d="M43.9014 24.0394C43.7718 23.9241 43.6149 23.8021 43.4512 23.6834C43.3898 23.6405 43.3284 23.5944 43.2636 23.5515C41.1487 22.1373 38.5666 21.5308 36.0186 21.8505C46.828 27.0755 43.9286 45.0614 28.9477 44.3823C27.6139 44.3295 26.2974 44.0823 25.0387 43.6537C24.7454 43.5482 24.452 43.4295 24.1552 43.3043C23.9847 43.2285 23.8142 43.1559 23.647 43.0702L23.6674 43.0834C25.7549 44.4614 36.0732 47.8272 46.8621 39.3353L46.8791 39.2991C47.1487 38.6892 50.7166 30.105 43.9014 24.0394Z" fill="url(#paint9_radial_1772_37045)"/>
<path d="M16.569 33.5634C16.569 33.5634 17.9573 28.5658 26.5018 28.5658C27.4261 28.5658 30.0696 26.0736 30.1174 25.3516C26.4437 26.6372 22.3915 26.4857 18.8339 24.9231C15.324 23.2022 11.1421 23.3638 7.78564 25.3516C9.06471 28.0284 11.8549 29.7228 14.9044 29.6799C14.3483 34.4303 16.9442 39.9652 23.2341 42.8694C23.3739 42.9353 23.5069 43.0046 23.6502 43.0672C19.98 41.2343 16.9475 37.7697 16.569 33.5634Z" fill="url(#paint10_radial_1772_37045)"/>
<path d="M57.8724 20.1369C56.566 17.1009 53.9191 13.8208 51.8417 12.7857C53.3221 15.5549 54.3488 18.5283 54.8843 21.6006L54.8911 21.65C51.4938 13.4614 45.7326 10.1616 41.0255 2.9719C40.7867 2.60928 40.548 2.24344 40.316 1.86099C40.183 1.64022 40.0771 1.4424 39.985 1.26109C39.7907 0.895154 39.6405 0.509383 39.5382 0.110524C39.5382 0.0709598 39.5075 0.0412618 39.4701 0.0347182C39.453 0.031396 39.4325 0.031396 39.412 0.0347182C39.4086 0.0347182 39.4017 0.0412618 39.3984 0.0445839C39.3949 0.0445839 39.3847 0.0545504 39.3779 0.0545504L39.3882 0.0348188C31.8396 4.307 29.278 12.2154 29.0428 16.1713C29.394 16.1482 29.742 16.1185 30.1001 16.1185C35.5542 16.1285 40.5787 18.9668 43.2699 23.549C41.1551 22.1348 38.573 21.5282 36.0249 21.848C46.8343 27.073 43.9349 45.059 28.954 44.3798C27.6203 44.3271 26.3037 44.0799 25.0451 43.6513C24.7517 43.5458 24.4583 43.4271 24.1615 43.3018C23.991 43.226 23.8205 43.1535 23.6533 43.0678L23.6737 43.081C23.527 43.0151 23.3838 42.9426 23.2371 42.87C23.377 42.9358 23.5101 43.0052 23.6533 43.0678C19.9831 41.2349 16.954 37.7703 16.5755 33.5639C16.5755 33.5639 17.9638 28.5663 26.5083 28.5663C27.4327 28.5663 30.0761 26.0741 30.1239 25.3522C30.1136 25.1149 24.8812 23.1039 22.8415 21.1623C21.7534 20.1239 21.2348 19.6261 20.7778 19.2503C20.5287 19.046 20.2729 18.8581 20.0034 18.6833C19.3179 16.3658 19.2905 13.9165 19.9182 11.5826C17.1451 12.8815 14.6823 14.7209 12.6835 16.9856H12.6698C11.4794 15.5253 11.5612 10.7157 11.6295 9.71012C11.2782 9.84864 10.9406 10.02 10.6267 10.2243C9.57609 10.9496 8.5937 11.7638 7.68984 12.6573C6.65974 13.666 5.72182 14.7537 4.87922 15.9143V15.9175V15.9109C2.9487 18.558 1.57745 21.5479 0.847447 24.7126L0.806509 24.9038C0.748488 25.1609 0.496093 26.4565 0.458593 26.7366C0.458593 26.7564 0.458593 26.7135 0.458593 26.7366C0.223176 28.0783 0.0765104 29.4299 0.0117188 30.788V30.9364C0.0253646 46.9774 13.4954 59.9723 30.0932 59.9558C44.7128 59.9426 57.2004 49.7695 59.6835 35.845C59.7346 35.4692 59.7756 35.1 59.8199 34.7209C60.441 29.7825 59.7689 24.7652 57.8724 20.1369ZM54.8912 21.6269L54.898 21.6566L54.8912 21.6269Z" fill="url(#paint11_linear_1772_37045)"/>
</g>
<defs>
<linearGradient id="paint0_linear_1772_37045" x1="53.8889" y1="9.31156" x2="5.64207" y2="57.477" gradientUnits="userSpaceOnUse">
<stop offset="0.048" stop-color="#FFF44F"/>
<stop offset="0.111" stop-color="#FFE847"/>
<stop offset="0.225" stop-color="#FFC830"/>
<stop offset="0.368" stop-color="#FF980E"/>
<stop offset="0.401" stop-color="#FF8B16"/>
<stop offset="0.462" stop-color="#FF672A"/>
<stop offset="0.534" stop-color="#FF3647"/>
<stop offset="0.705" stop-color="#E31587"/>
</linearGradient>
<radialGradient id="paint1_radial_1772_37045" cx="0" cy="0" r="1" gradientUnits="userSpaceOnUse" gradientTransform="translate(51.5875 6.68137) scale(62.6522 60.5497)">
<stop offset="0.129" stop-color="#FFBD4F"/>
<stop offset="0.186" stop-color="#FFAC31"/>
<stop offset="0.247" stop-color="#FF9D17"/>
<stop offset="0.283" stop-color="#FF980E"/>
<stop offset="0.403" stop-color="#FF563B"/>
<stop offset="0.467" stop-color="#FF3750"/>
<stop offset="0.71" stop-color="#F5156C"/>
<stop offset="0.782" stop-color="#EB0878"/>
<stop offset="0.86" stop-color="#E50080"/>
</radialGradient>
<radialGradient id="paint2_radial_1772_37045" cx="0" cy="0" r="1" gradientUnits="userSpaceOnUse" gradientTransform="translate(28.6938 31.4359) scale(62.6524 60.5499)">
<stop offset="0.3" stop-color="#960E18"/>
<stop offset="0.351" stop-color="#B11927" stop-opacity="0.74"/>
<stop offset="0.435" stop-color="#DB293D" stop-opacity="0.343"/>
<stop offset="0.497" stop-color="#F5334B" stop-opacity="0.094"/>
<stop offset="0.53" stop-color="#FF3750" stop-opacity="0"/>
</radialGradient>
<radialGradient id="paint3_radial_1772_37045" cx="0" cy="0" r="1" gradientUnits="userSpaceOnUse" gradientTransform="translate(36.2485 -7.05974) scale(45.3874 43.8643)">
<stop offset="0.132" stop-color="#FFF44F"/>
<stop offset="0.252" stop-color="#FFDC3E"/>
<stop offset="0.506" stop-color="#FF9D12"/>
<stop offset="0.526" stop-color="#FF980E"/>
</radialGradient>
<radialGradient id="paint4_radial_1772_37045" cx="0" cy="0" r="1" gradientUnits="userSpaceOnUse" gradientTransform="translate(21.7643 47.2517) scale(29.8315 28.8304)">
<stop offset="0.353" stop-color="#3A8EE6"/>
<stop offset="0.472" stop-color="#5C79F0"/>
<stop offset="0.669" stop-color="#9059FF"/>
<stop offset="1" stop-color="#C139E6"/>
</radialGradient>
<radialGradient id="paint5_radial_1772_37045" cx="0" cy="0" r="1" gradientUnits="userSpaceOnUse" gradientTransform="translate(32.1173 26.473) rotate(-13.159) scale(15.7893 17.9276)">
<stop offset="0.206" stop-color="#9059FF" stop-opacity="0"/>
<stop offset="0.278" stop-color="#8C4FF3" stop-opacity="0.064"/>
<stop offset="0.747" stop-color="#7716A8" stop-opacity="0.45"/>
<stop offset="0.975" stop-color="#6E008B" stop-opacity="0.6"/>
</radialGradient>
<radialGradient id="paint6_radial_1772_37045" cx="0" cy="0" r="1" gradientUnits="userSpaceOnUse" gradientTransform="translate(27.9036 4.20512) scale(21.4609 20.7407)">
<stop stop-color="#FFE226"/>
<stop offset="0.121" stop-color="#FFDB27"/>
<stop offset="0.295" stop-color="#FFC82A"/>
<stop offset="0.502" stop-color="#FFA930"/>
<stop offset="0.732" stop-color="#FF7E37"/>
<stop offset="0.792" stop-color="#FF7139"/>
</radialGradient>
<radialGradient id="paint7_radial_1772_37045" cx="0" cy="0" r="1" gradientUnits="userSpaceOnUse" gradientTransform="translate(44.7724 -8.951) scale(91.5631 88.4905)">
<stop offset="0.113" stop-color="#FFF44F"/>
<stop offset="0.456" stop-color="#FF980E"/>
<stop offset="0.622" stop-color="#FF5634"/>
<stop offset="0.716" stop-color="#FF3647"/>
<stop offset="0.904" stop-color="#E31587"/>
</radialGradient>
<radialGradient id="paint8_radial_1772_37045" cx="0" cy="0" r="1" gradientUnits="userSpaceOnUse" gradientTransform="translate(37.054 -4.03035) rotate(83.765) scale(64.8823 44.0224)">
<stop stop-color="#FFF44F"/>
<stop offset="0.06" stop-color="#FFE847"/>
<stop offset="0.168" stop-color="#FFC830"/>
<stop offset="0.304" stop-color="#FF980E"/>
<stop offset="0.356" stop-color="#FF8B16"/>
<stop offset="0.455" stop-color="#FF672A"/>
<stop offset="0.57" stop-color="#FF3647"/>
<stop offset="0.737" stop-color="#E31587"/>
</radialGradient>
<radialGradient id="paint9_radial_1772_37045" cx="0" cy="0" r="1" gradientUnits="userSpaceOnUse" gradientTransform="translate(27.3983 11.8867) scale(57.1644 55.2462)">
<stop offset="0.137" stop-color="#FFF44F"/>
<stop offset="0.48" stop-color="#FF980E"/>
<stop offset="0.592" stop-color="#FF5634"/>
<stop offset="0.655" stop-color="#FF3647"/>
<stop offset="0.904" stop-color="#E31587"/>
</radialGradient>
<radialGradient id="paint10_radial_1772_37045" cx="0" cy="0" r="1" gradientUnits="userSpaceOnUse" gradientTransform="translate(42.4878 15.1202) scale(62.5662 60.4668)">
<stop offset="0.094" stop-color="#FFF44F"/>
<stop offset="0.231" stop-color="#FFE141"/>
<stop offset="0.509" stop-color="#FFAF1E"/>
<stop offset="0.626" stop-color="#FF980E"/>
</radialGradient>
<linearGradient id="paint11_linear_1772_37045" x1="53.2911" y1="9.06435" x2="12.2881" y2="51.4903" gradientUnits="userSpaceOnUse">
<stop offset="0.167" stop-color="#FFF44F" stop-opacity="0.8"/>
<stop offset="0.266" stop-color="#FFF44F" stop-opacity="0.634"/>
<stop offset="0.489" stop-color="#FFF44F" stop-opacity="0.217"/>
<stop offset="0.6" stop-color="#FFF44F" stop-opacity="0"/>
</linearGradient>
<clipPath id="clip0_1772_37045">
<rect width="60" height="60" fill="white"/>
</clipPath>
</defs>
</svg>
