<svg width="28" height="28" viewBox="0 0 28 28" fill="none" xmlns="http://www.w3.org/2000/svg">
<path d="M20.5613 16.3409L20.5613 16.3409L20.5571 16.345C20.1366 16.7525 19.944 17.341 20.0396 17.9175L20.0395 17.9175L20.0408 17.9246L21.0779 23.6642C21.1306 23.9572 21.0071 24.2543 20.7609 24.4243L20.7608 24.4241L20.75 24.4321C20.5075 24.6093 20.1833 24.6316 19.9163 24.4884L19.9163 24.4884L19.9113 24.4857L14.7479 21.7927C14.7472 21.7924 14.7465 21.792 14.7458 21.7916C14.4963 21.6592 14.2217 21.5894 13.9438 21.5814L13.9367 21.5812H13.9295H13.6134H13.5763L13.5397 21.5867C13.3762 21.611 13.2137 21.6632 13.0627 21.7453L7.90218 24.449C7.74271 24.5282 7.56347 24.5565 7.38784 24.5298C6.96885 24.4468 6.68932 24.0468 6.75624 23.6238L7.79371 17.8886L7.79378 17.8886L7.79508 17.8806C7.89024 17.3016 7.69831 16.7126 7.28032 16.3011L7.27752 16.2984L3.06486 12.2152C2.85158 12.0083 2.7782 11.6988 2.87516 11.4199L2.87648 11.416C2.97308 11.1305 3.21878 10.9227 3.51513 10.8751L9.30077 10.0357C9.90765 9.96933 10.4393 9.5986 10.7122 9.05267L10.7123 9.05268L10.7144 9.04825L13.2663 3.8164C13.2995 3.75347 13.3395 3.69808 13.3842 3.65182L13.4653 3.58874L13.4999 3.56184L13.5293 3.52933C13.541 3.51641 13.5542 3.50435 13.5695 3.49305L13.6456 3.46512L13.6547 3.46177L13.6637 3.45807L13.7706 3.41406H14.1339C14.3951 3.44855 14.6225 3.60731 14.7435 3.84007L17.3292 9.04881C17.3295 9.0493 17.3297 9.04979 17.33 9.05028C17.5893 9.57917 18.0919 9.94508 18.671 10.0338L18.671 10.0338L18.6749 10.0344L24.4732 10.8755L24.4743 10.8757C24.7771 10.919 25.0309 11.1274 25.1329 11.4154C25.223 11.6972 25.1432 12.0058 24.9262 12.2094L24.9247 12.2109L20.5613 16.3409ZM2.40292 11.2557L2.40286 11.2557L2.40292 11.2557Z" stroke="#FFA44B"/>
</svg>
