<svg width="65" height="65" viewBox="0 0 65 65" fill="none" xmlns="http://www.w3.org/2000/svg">
<circle cx="32.5" cy="32.5" r="32.5" fill="#0061AE"/>
<path d="M50.3912 42.1561C48.6114 41.3227 46.9068 40.3372 45.2961 39.2104L29.5369 43.0254C29.2243 43.0968 28.8981 43.0783 28.5955 42.9723C21.0751 39.9619 14.8114 34.4609 10.848 27.3858C10.1462 27.5461 9.01919 27.6982 9.3391 28.6935C10.8744 32.8149 13.1811 36.6048 16.1352 39.8596C19.6611 43.725 24.0105 46.7454 28.8607 48.6968C29.0167 48.7518 29.1848 48.763 29.3467 48.7292L50.2292 43.6736C50.3915 43.6346 50.5378 43.5463 50.648 43.4207C50.7581 43.295 50.8268 43.1384 50.8446 42.9721C50.8623 42.8058 50.8283 42.6381 50.7471 42.492C50.6659 42.3459 50.5416 42.2286 50.3912 42.1561Z" fill="white"/>
<path d="M52.0327 17.3784C46.3205 23.101 45.6575 23.7651 39.9454 29.4876C38.8137 30.3428 38.9507 32.1931 39.1032 33.1156C39.1303 33.2805 39.2083 33.4327 39.3262 33.5508C39.4441 33.6689 39.5961 33.7471 39.7606 33.7742C40.6815 33.927 42.5284 34.0642 43.382 32.9305L55.4693 20.8213C55.6937 20.3395 55.7646 19.8001 55.6725 19.2765C55.5804 18.7528 55.3297 18.2703 54.9544 17.8943C54.5791 17.5183 54.0974 17.2672 53.5747 17.1749C53.052 17.0826 52.5137 17.1537 52.0327 17.3784Z" fill="white"/>
<path d="M50.3912 35.6641C48.4929 34.7694 46.6781 33.7067 44.9683 32.4889L43.9908 33.4682C43.1568 34.8174 38.702 35.5202 38.3039 33.2487C38.1118 32.0869 38.0034 29.9877 39.4091 28.8774L40.0489 28.2364C36.7733 24.7693 34.2323 20.6737 32.5788 16.1964C32.5101 16.0088 32.3742 15.8534 32.1976 15.7605C32.0209 15.6675 31.8161 15.6436 31.6229 15.6934C24.3813 17.503 17.1396 19.3153 9.89801 21.1303C9.78799 21.1589 9.68516 21.2103 9.59617 21.2812C9.50718 21.352 9.43399 21.4408 9.38134 21.5417C9.32868 21.6426 9.29771 21.7535 9.29044 21.8671C9.28316 21.9808 9.29974 22.0947 9.3391 22.2015C10.8744 26.3229 13.1811 30.1128 16.1352 33.3676C19.6611 37.233 24.0105 40.2534 28.8607 42.2048C29.0167 42.2598 29.1848 42.271 29.3467 42.2372L50.2292 37.1816C50.3915 37.1426 50.5377 37.0543 50.6479 36.9287C50.7581 36.8031 50.8267 36.6464 50.8445 36.4801C50.8622 36.3139 50.8282 36.1462 50.747 36.0001C50.6659 35.854 50.5416 35.7366 50.3912 35.6641ZM18.0578 24.0521C17.8622 24.0484 17.6746 23.974 17.5294 23.8427C17.3842 23.7113 17.2912 23.5319 17.2675 23.3374C17.2439 23.1428 17.2911 22.9463 17.4005 22.7839C17.51 22.6214 17.6743 22.5041 17.8633 22.4533L26.9175 20.1968C27.1242 20.1496 27.3412 20.1855 27.5218 20.2969C27.7024 20.4082 27.8323 20.586 27.8834 20.7922C27.9346 20.9984 27.903 21.2164 27.7954 21.3995C27.6879 21.5826 27.5129 21.7161 27.3082 21.7714L18.254 24.028C18.1899 24.0442 18.124 24.0523 18.0578 24.0521ZM20.34 26.4331C20.1443 26.4294 19.9566 26.3549 19.8114 26.2235C19.6661 26.0921 19.5731 25.9126 19.5495 25.718C19.5259 25.5234 19.5732 25.3268 19.6828 25.1643C19.7923 25.0019 19.9568 24.8846 20.1458 24.8339L29.2079 22.5845C29.4148 22.5374 29.6318 22.5735 29.8124 22.685C29.993 22.7964 30.1228 22.9744 30.1738 23.1807C30.2249 23.387 30.1931 23.605 30.0855 23.7881C29.9778 23.9712 29.8027 24.1047 29.5979 24.1599L20.5358 26.4094C20.4717 26.4252 20.406 26.4332 20.34 26.4331ZM22.8175 28.7911C22.6103 28.8389 22.3927 28.8031 22.2116 28.6916C22.0305 28.58 21.9004 28.4016 21.8495 28.1949C21.7985 27.9881 21.8307 27.7695 21.9392 27.5864C22.0476 27.4032 22.2236 27.27 22.4291 27.2157L26.31 26.2564C26.5169 26.2095 26.7339 26.2457 26.9143 26.3573C27.0948 26.469 27.2244 26.647 27.2753 26.8533C27.3261 27.0597 27.2942 27.2777 27.1863 27.4607C27.0784 27.6436 26.9032 27.7769 26.6983 27.8318L22.8175 28.7911ZM37.3775 35.7169C34.1434 36.6902 31.0001 31.2735 28.3074 34.3348C28.1758 34.5015 27.9843 34.6098 27.7739 34.6366C27.5635 34.6634 27.351 34.6064 27.182 34.478C27.0131 34.3496 26.9011 34.1599 26.8701 33.9497C26.8392 33.7395 26.8917 33.5256 27.0165 33.3537C28.9737 30.8546 31.9444 31.7173 34.1303 33.2648C35.0368 33.8094 36.0897 34.338 37.031 34.132C37.2394 34.0896 37.4561 34.131 37.6343 34.2473C37.8125 34.3636 37.9378 34.5454 37.9833 34.7535C38.0288 34.9616 37.9908 35.1793 37.8774 35.3596C37.7641 35.5398 37.5845 35.6682 37.3775 35.7169Z" fill="white"/>
</svg>
