<svg width="49" height="53" viewBox="0 0 49 53" fill="none" xmlns="http://www.w3.org/2000/svg">
<path d="M6.80966 49.6695C-5.03053e-05 49.6695 0 43.7207 0 43.7207V0H49.0004V43.7207C49.0004 43.7207 49.0004 49.6695 42.1907 49.6695H31.5257C29.2056 49.6695 24.7134 53 24.7134 53C24.7134 53 19.7947 49.6695 17.4746 49.6695H6.80966Z" fill="#F23C29"/>
<path fill-rule="evenodd" clip-rule="evenodd" d="M24.4956 7.42456L6.15867 14.5796H42.8326L24.4956 7.42456ZM24.4956 12.6952C23.7298 12.6952 23.109 12.0889 23.109 11.3404C23.109 10.5928 23.7298 9.98609 24.4956 9.98609C25.2615 9.98609 25.8822 10.5928 25.8822 11.3404C25.8822 12.0889 25.2615 12.6952 24.4956 12.6952Z" fill="white"/>
<path d="M6.40196 17.7624H42.5943V15.9494H6.40196V17.7624Z" fill="white"/>
<path d="M6.24822 37.3342H42.4405V35.5207H40.5285V20.7671H41.4319V18.8878H37.5322V20.7671H38.4349V35.5207H34.4738V20.7671H35.3768V18.8878H31.4767V20.7671H32.3802V35.5207H28.4183V20.7671H29.3221V18.8878H25.422V20.7671H26.3247V35.5207H22.3636V20.7671H23.2666V18.8878H19.3665V20.7671H20.27V35.5207H16.3081V20.7671H17.2119V18.8878H13.3118V20.7671H14.2145V35.5207H10.2534V20.7671H11.1564V18.8878H7.25628V20.7671H8.15973V35.5207H6.24822V37.3342Z" fill="white"/>
<path d="M44.6315 40.4145H4.36523V38.6014H44.6315V40.4145Z" fill="white"/>
</svg>
