<svg width="244" height="36" viewBox="0 0 244 36" fill="none" xmlns="http://www.w3.org/2000/svg">
<path d="M8.85192 4.40732H11.5142C11.462 1.82706 9.26207 0 6.01065 0C2.80398 0 0.395241 1.80469 0.402699 4.50426C0.402699 6.69673 1.96129 7.95703 4.47443 8.60582L6.212 9.05327C7.86009 9.47088 8.94886 9.98544 8.95632 11.1712C8.94886 12.4762 7.71094 13.3487 5.90625 13.3487C4.17614 13.3487 2.83381 12.5732 2.72195 10.9698H0C0.111861 14.005 2.37145 15.7127 5.92862 15.7127C9.5902 15.7127 11.7156 13.8857 11.723 11.1935C11.7156 8.54617 9.53054 7.33807 7.23366 6.79368L5.80185 6.43572C4.54901 6.13743 3.19176 5.60795 3.20668 4.33274C3.21413 3.1843 4.24325 2.34162 5.97337 2.34162C7.62145 2.34162 8.71023 3.10973 8.85192 4.40732Z" fill="#0061AE"/>
<path d="M24.132 0.208807V9.95561C24.132 11.8722 22.7972 13.2443 20.7016 13.2443C18.5986 13.2443 17.2712 11.8722 17.2712 9.95561V0.208807H14.5045V10.1868C14.5045 13.468 16.9655 15.7127 20.7016 15.7127C24.4229 15.7127 26.8987 13.468 26.8987 10.1868V0.208807H24.132Z" fill="#0061AE"/>
<path d="M35.3963 15.4815C40.0497 15.4815 42.809 12.603 42.809 7.83026C42.809 3.07244 40.0497 0.208807 35.5007 0.208807H30.2209V15.4815H35.3963ZM32.9876 13.0877V2.60263H35.3441C38.4464 2.60263 40.0647 4.33274 40.0647 7.83026C40.0647 11.3427 38.4464 13.0877 35.2621 13.0877H32.9876Z" fill="#0061AE"/>
<path d="M46.3325 15.6456C47.2125 15.6456 47.9657 14.9148 47.9731 14.005C47.9657 13.1101 47.2125 12.3793 46.3325 12.3793C45.4227 12.3793 44.6844 13.1101 44.6919 14.005C44.6844 14.9148 45.4227 15.6456 46.3325 15.6456Z" fill="#0061AE"/>
<path d="M64.8417 7.84517C64.8417 2.90838 61.8289 0 57.8243 0C53.8122 0 50.8069 2.90838 50.8069 7.84517C50.8069 12.7745 53.8122 15.6903 57.8243 15.6903C61.8289 15.6903 64.8417 12.782 64.8417 7.84517ZM62.0601 7.84517C62.0601 11.3203 60.315 13.207 57.8243 13.207C55.341 13.207 53.5885 11.3203 53.5885 7.84517C53.5885 4.37003 55.341 2.48331 57.8243 2.48331C60.315 2.48331 62.0601 4.37003 62.0601 7.84517Z" fill="#0061AE"/>
<path d="M80.3231 0.208807H77.5714V10.6193H77.4371L70.2482 0.208807H67.7724V15.4815H70.539V5.07848H70.6658L77.8622 15.4815H80.3231V0.208807Z" fill="#0061AE"/>
<path d="M83.6528 15.4815H93.146V13.1623H86.4195V0.208807H83.6528V15.4815Z" fill="#0061AE"/>
<path d="M98.629 0.208807H95.8623V15.4815H98.629V0.208807Z" fill="#0061AE"/>
<path d="M114.491 0.208807H111.739V10.6193H111.605L104.416 0.208807H101.94V15.4815H104.707V5.07848H104.833L112.03 15.4815H114.491V0.208807Z" fill="#0061AE"/>
<path d="M117.82 15.4815H127.813V13.1623H120.587V8.99361H127.239V6.67436H120.587V2.52805H127.754V0.208807H117.82V15.4815Z" fill="#0061AE"/>
<path d="M6.63068 24.7543H0.119318V33.4815H1.17614V25.6918H5.57386V33.4815H6.63068V24.7543Z" fill="#0061AE"/>
<path d="M11.4652 33.6179C13.2379 33.6179 14.4311 32.2713 14.4311 30.2429C14.4311 28.1974 13.2379 26.8509 11.4652 26.8509C9.69243 26.8509 8.49925 28.1974 8.49925 30.2429C8.49925 32.2713 9.69243 33.6179 11.4652 33.6179ZM11.4652 32.7145C10.1186 32.7145 9.50493 31.5554 9.50493 30.2429C9.50493 28.9304 10.1186 27.7543 11.4652 27.7543C12.8117 27.7543 13.4254 28.9304 13.4254 30.2429C13.4254 31.5554 12.8117 32.7145 11.4652 32.7145Z" fill="#0061AE"/>
<path d="M16.1462 35.9361H17.1519V32.4759H17.2371C17.4587 32.8338 17.8849 33.6179 19.1462 33.6179C20.7826 33.6179 21.9246 32.3054 21.9246 30.2259C21.9246 28.1634 20.7826 26.8509 19.1292 26.8509C17.8508 26.8509 17.4587 27.6349 17.2371 27.9759H17.1178V26.9361H16.1462V35.9361ZM17.1349 30.2088C17.1349 28.7429 17.7826 27.7543 19.0099 27.7543C20.2883 27.7543 20.9189 28.8281 20.9189 30.2088C20.9189 31.6065 20.2712 32.7145 19.0099 32.7145C17.7996 32.7145 17.1349 31.6918 17.1349 30.2088Z" fill="#0061AE"/>
<path d="M22.7833 27.8736H24.948V33.4815H25.9537V27.8736H28.1014V26.9361H22.7833V27.8736Z" fill="#0061AE"/>
<path d="M31.3347 33.6349C32.4767 33.6349 33.0733 33.0213 33.2779 32.5952H33.329V33.4815H34.3347V29.169C34.3347 27.0895 32.7495 26.8509 31.9142 26.8509C30.9256 26.8509 29.8006 27.1918 29.2892 28.3849L30.2438 28.7259C30.4654 28.2486 30.9895 27.7372 31.9483 27.7372C32.8731 27.7372 33.329 28.2273 33.329 29.0668V29.1009C33.329 29.5866 32.8347 29.544 31.6415 29.6974C30.427 29.8551 29.1017 30.1236 29.1017 31.6236C29.1017 32.902 30.0904 33.6349 31.3347 33.6349ZM31.4881 32.7315C30.687 32.7315 30.1074 32.3736 30.1074 31.6747C30.1074 30.9077 30.8063 30.669 31.5904 30.5668C32.0165 30.5156 33.1586 30.3963 33.329 30.1918V31.1122C33.329 31.9304 32.6813 32.7315 31.4881 32.7315Z" fill="#0061AE"/>
<path d="M35.7707 33.4815H36.1116C37.5605 33.4815 37.9781 32.3565 38.0719 30.2088L38.1741 27.8736H40.5776V33.4815H41.5832V26.9361H37.2196L37.1003 29.8338C37.0151 32.0327 36.7935 32.544 36.0094 32.544H35.7707V33.4815Z" fill="#0061AE"/>
<path d="M49.8225 33.6179C51.2714 33.6179 52.2259 32.7315 52.3964 31.5724H51.3907C51.2032 32.2884 50.6066 32.7145 49.8225 32.7145C48.6293 32.7145 47.8623 31.7259 47.8623 30.2088C47.8623 28.7259 48.6464 27.7543 49.8225 27.7543C50.7089 27.7543 51.2373 28.2997 51.3907 28.8963H52.3964C52.2259 27.669 51.1861 26.8509 49.8055 26.8509C48.0327 26.8509 46.8566 28.2486 46.8566 30.2429C46.8566 32.2031 47.9816 33.6179 49.8225 33.6179Z" fill="#0061AE"/>
<path d="M56.7056 33.6179C58.4784 33.6179 59.6715 32.2713 59.6715 30.2429C59.6715 28.1974 58.4784 26.8509 56.7056 26.8509C54.9329 26.8509 53.7397 28.1974 53.7397 30.2429C53.7397 32.2713 54.9329 33.6179 56.7056 33.6179ZM56.7056 32.7145C55.359 32.7145 54.7454 31.5554 54.7454 30.2429C54.7454 28.9304 55.359 27.7543 56.7056 27.7543C58.0522 27.7543 58.6659 28.9304 58.6659 30.2429C58.6659 31.5554 58.0522 32.7145 56.7056 32.7145Z" fill="#0061AE"/>
<path d="M64.0458 33.6179C65.4946 33.6179 66.4492 32.7315 66.6196 31.5724H65.614C65.4265 32.2884 64.8299 32.7145 64.0458 32.7145C62.8526 32.7145 62.0856 31.7259 62.0856 30.2088C62.0856 28.7259 62.8696 27.7543 64.0458 27.7543C64.9321 27.7543 65.4605 28.2997 65.614 28.8963H66.6196C66.4492 27.669 65.4094 26.8509 64.0287 26.8509C62.256 26.8509 61.0799 28.2486 61.0799 30.2429C61.0799 32.2031 62.2049 33.6179 64.0458 33.6179Z" fill="#0061AE"/>
<path d="M67.7542 27.8736H69.919V33.4815H70.9246V27.8736H73.0724V26.9361H67.7542V27.8736Z" fill="#0061AE"/>
<path d="M76.3056 33.6349C77.4477 33.6349 78.0443 33.0213 78.2488 32.5952H78.3V33.4815H79.3056V29.169C79.3056 27.0895 77.7204 26.8509 76.8852 26.8509C75.8965 26.8509 74.7715 27.1918 74.2602 28.3849L75.2147 28.7259C75.4363 28.2486 75.9605 27.7372 76.9193 27.7372C77.844 27.7372 78.3 28.2273 78.3 29.0668V29.1009C78.3 29.5866 77.8056 29.544 76.6125 29.6974C75.398 29.8551 74.0727 30.1236 74.0727 31.6236C74.0727 32.902 75.0613 33.6349 76.3056 33.6349ZM76.4591 32.7315C75.6579 32.7315 75.0784 32.3736 75.0784 31.6747C75.0784 30.9077 75.7772 30.669 76.5613 30.5668C76.9875 30.5156 78.1295 30.3963 78.3 30.1918V31.1122C78.3 31.9304 77.6522 32.7315 76.4591 32.7315Z" fill="#0061AE"/>
<path d="M81.3212 33.4815H84.4065C85.736 33.4815 86.5371 32.7315 86.5371 31.7259C86.5371 30.6989 85.7573 30.1449 85.0371 30.0384C85.7743 29.8849 86.2985 29.4716 86.2985 28.6747C86.2985 27.6307 85.4036 26.9361 83.9974 26.9361H81.3212V33.4815ZM82.2758 32.5611V30.5497H84.4065C85.0968 30.5497 85.5144 30.9631 85.5144 31.6406C85.5144 32.2116 85.0968 32.5611 84.4065 32.5611H82.2758ZM82.2758 29.6804V27.8565H83.9974C84.8028 27.8565 85.2928 28.1932 85.2928 28.7429C85.2928 29.3267 84.8028 29.6804 83.9974 29.6804H82.2758Z" fill="#0061AE"/>
<path d="M87.66 33.4815H88.0009C89.4497 33.4815 89.8673 32.3565 89.9611 30.2088L90.0634 27.8736H92.4668V33.4815H93.4725V26.9361H89.1088L88.9895 29.8338C88.9043 32.0327 88.6827 32.544 87.8986 32.544H87.66V33.4815Z" fill="#0061AE"/>
<path d="M98.2419 33.6179C99.5715 33.6179 100.543 32.9531 100.85 31.9645L99.8783 31.6918C99.6226 32.3736 99.0303 32.7145 98.2419 32.7145C97.0615 32.7145 96.2476 31.9517 96.2008 30.5497H100.952V30.1236C100.952 27.6861 99.5033 26.8509 98.1397 26.8509C96.3669 26.8509 95.1908 28.2486 95.1908 30.2599C95.1908 32.2713 96.3499 33.6179 98.2419 33.6179ZM96.2008 29.6804C96.2689 28.6619 96.9891 27.7543 98.1397 27.7543C99.2306 27.7543 99.9294 28.5724 99.9294 29.6804H96.2008Z" fill="#0061AE"/>
<path d="M103.668 26.9361H102.662V33.4815H103.668V30.6861H106.804V33.4815H107.81V26.9361H106.804V29.7486H103.668V26.9361Z" fill="#0061AE"/>
<path d="M110.832 31.9986V26.9361H109.826V33.4815H111.003L114.139 28.419V33.4815H115.145V26.9361H113.985L110.832 31.9986Z" fill="#0061AE"/>
<path d="M121.104 33.4815H122.059V26.9361H119.365C117.955 26.9361 117.098 27.6733 117.098 28.8793C117.098 29.7784 117.55 30.4176 118.338 30.6861L116.74 33.4815H117.831L119.348 30.8224H121.104V33.4815ZM121.104 29.8849H119.246C118.534 29.8849 118.104 29.5057 118.104 28.8793C118.104 28.2443 118.581 27.8565 119.365 27.8565H121.104V29.8849Z" fill="#0061AE"/>
<path d="M128.645 31.9986V26.9361H127.64V33.4815H128.816L131.952 28.419V33.4815H132.958V26.9361H131.799L128.645 31.9986Z" fill="#0061AE"/>
<path d="M137.639 33.6179C139.088 33.6179 140.042 32.7315 140.213 31.5724H139.207C139.02 32.2884 138.423 32.7145 137.639 32.7145C136.446 32.7145 135.679 31.7259 135.679 30.2088C135.679 28.7259 136.463 27.7543 137.639 27.7543C138.525 27.7543 139.054 28.2997 139.207 28.8963H140.213C140.042 27.669 139.003 26.8509 137.622 26.8509C135.849 26.8509 134.673 28.2486 134.673 30.2429C134.673 32.2031 135.798 33.6179 137.639 33.6179Z" fill="#0061AE"/>
<path d="M141.863 33.4815H142.869V30.7202H143.772L145.92 33.4815H147.215L144.539 30.0895L147.181 26.9361H145.886L143.534 29.7827H142.869V26.9361H141.863V33.4815Z" fill="#0061AE"/>
<path d="M150.878 33.6179C152.651 33.6179 153.844 32.2713 153.844 30.2429C153.844 28.1974 152.651 26.8509 150.878 26.8509C149.105 26.8509 147.912 28.1974 147.912 30.2429C147.912 32.2713 149.105 33.6179 150.878 33.6179ZM150.878 32.7145C149.531 32.7145 148.918 31.5554 148.918 30.2429C148.918 28.9304 149.531 27.7543 150.878 27.7543C152.225 27.7543 152.838 28.9304 152.838 30.2429C152.838 31.5554 152.225 32.7145 150.878 32.7145Z" fill="#0061AE"/>
<path d="M155.559 33.4815H158.644C159.974 33.4815 160.775 32.7315 160.775 31.7259C160.775 30.6989 159.995 30.1449 159.275 30.0384C160.012 29.8849 160.536 29.4716 160.536 28.6747C160.536 27.6307 159.641 26.9361 158.235 26.9361H155.559V33.4815ZM156.514 32.5611V30.5497H158.644C159.335 30.5497 159.752 30.9631 159.752 31.6406C159.752 32.2116 159.335 32.5611 158.644 32.5611H156.514ZM156.514 29.6804V27.8565H158.235C159.041 27.8565 159.531 28.1932 159.531 28.7429C159.531 29.3267 159.041 29.6804 158.235 29.6804H156.514Z" fill="#0061AE"/>
<path d="M163.483 29.3054V26.9361H162.477V33.4815H165.222C166.756 33.4815 167.591 32.544 167.591 31.3679C167.591 30.1747 166.756 29.3054 165.222 29.3054H163.483ZM168.631 33.4815H169.636V26.9361H168.631V33.4815ZM163.483 30.2429H165.222C166.019 30.2429 166.585 30.7287 166.585 31.419C166.585 32.0795 166.019 32.544 165.222 32.544H163.483V30.2429Z" fill="#0061AE"/>
<path d="M172.407 26.9361H171.248L173.328 30.2088L171.248 33.4815H172.407L173.975 30.9418L175.544 33.4815H176.703L174.589 30.2088L176.703 26.9361H175.544L173.975 29.6122L172.407 26.9361Z" fill="#0061AE"/>
<path d="M181.464 31.8111C181.498 32.8849 182.525 33.6179 183.918 33.6179C185.35 33.6179 186.39 32.8508 186.39 31.6577C186.39 30.8395 185.9 30.1747 185.163 30.1236V30.0554C185.785 29.8636 186.253 29.4119 186.253 28.6747C186.253 27.6392 185.367 26.8509 183.986 26.8509C182.623 26.8509 181.651 27.6009 181.617 28.6577H182.674C182.704 28.1165 183.271 27.7372 184.038 27.7372C184.8 27.7372 185.231 28.125 185.231 28.7088C185.231 29.2543 184.856 29.6634 184.055 29.6634H182.93V30.5668H184.055C184.856 30.5668 185.367 31.0057 185.367 31.6577C185.367 32.4034 184.707 32.7145 183.901 32.7145C183.113 32.7145 182.584 32.4034 182.538 31.8111H181.464Z" fill="#0061AE"/>
<path d="M189.909 33.6349C191.051 33.6349 191.647 33.0213 191.852 32.5952H191.903V33.4815H192.909V29.169C192.909 27.0895 191.323 26.8509 190.488 26.8509C189.5 26.8509 188.375 27.1918 187.863 28.3849L188.818 28.7259C189.039 28.2486 189.563 27.7372 190.522 27.7372C191.447 27.7372 191.903 28.2273 191.903 29.0668V29.1009C191.903 29.5866 191.409 29.544 190.215 29.6974C189.001 29.8551 187.676 30.1236 187.676 31.6236C187.676 32.902 188.664 33.6349 189.909 33.6349ZM190.062 32.7315C189.261 32.7315 188.681 32.3736 188.681 31.6747C188.681 30.9077 189.38 30.669 190.164 30.5668C190.59 30.5156 191.732 30.3963 191.903 30.1918V31.1122C191.903 31.9304 191.255 32.7315 190.062 32.7315Z" fill="#0061AE"/>
<path d="M198.862 33.4815H199.816V26.9361H197.123C195.713 26.9361 194.856 27.6733 194.856 28.8793C194.856 29.7784 195.308 30.4176 196.096 30.6861L194.498 33.4815H195.589L197.106 30.8224H198.862V33.4815ZM198.862 29.8849H197.004C196.292 29.8849 195.862 29.5057 195.862 28.8793C195.862 28.2443 196.339 27.8565 197.123 27.8565H198.862V29.8849Z" fill="#0061AE"/>
<path d="M201.842 33.4815H204.928C206.257 33.4815 207.058 32.7315 207.058 31.7259C207.058 30.6989 206.279 30.1449 205.558 30.0384C206.296 29.8849 206.82 29.4716 206.82 28.6747C206.82 27.6307 205.925 26.9361 204.519 26.9361H201.842V33.4815ZM202.797 32.5611V30.5497H204.928C205.618 30.5497 206.036 30.9631 206.036 31.6406C206.036 32.2116 205.618 32.5611 204.928 32.5611H202.797ZM202.797 29.6804V27.8565H204.519C205.324 27.8565 205.814 28.1932 205.814 28.7429C205.814 29.3267 205.324 29.6804 204.519 29.6804H202.797Z" fill="#0061AE"/>
<path d="M208.181 33.4815H208.522C209.971 33.4815 210.389 32.3565 210.482 30.2088L210.585 27.8736H212.988V33.4815H213.994V26.9361H209.63L209.511 29.8338C209.426 32.0327 209.204 32.544 208.42 32.544H208.181V33.4815Z" fill="#0061AE"/>
<path d="M218.763 33.6179C220.093 33.6179 221.064 32.9531 221.371 31.9645L220.4 31.6918C220.144 32.3736 219.552 32.7145 218.763 32.7145C217.583 32.7145 216.769 31.9517 216.722 30.5497H221.473V30.1236C221.473 27.6861 220.025 26.8509 218.661 26.8509C216.888 26.8509 215.712 28.2486 215.712 30.2599C215.712 32.2713 216.871 33.6179 218.763 33.6179ZM216.722 29.6804C216.79 28.6619 217.51 27.7543 218.661 27.7543C219.752 27.7543 220.451 28.5724 220.451 29.6804H216.722Z" fill="#0061AE"/>
<path d="M224.189 26.9361H223.183V33.4815H224.189V30.6861H227.325V33.4815H228.331V26.9361H227.325V29.7486H224.189V26.9361Z" fill="#0061AE"/>
<path d="M231.353 31.9986V26.9361H230.348V33.4815H231.524L234.66 28.419V33.4815H235.666V26.9361H234.507L231.353 31.9986Z" fill="#0061AE"/>
<path d="M238.693 31.9986V26.9361H237.688V33.4815H238.864L242 28.419V33.4815H243.006V26.9361H241.847L238.693 31.9986ZM241.182 24.7543C241.182 25.1974 240.943 25.5895 240.347 25.5895C239.75 25.5895 239.529 25.1974 239.529 24.7543H238.591C238.591 25.6747 239.273 26.3224 240.347 26.3224C241.438 26.3224 242.12 25.6747 242.12 24.7543H241.182Z" fill="#0061AE"/>
</svg>
