<svg width="319" height="233" viewBox="0 0 319 233" fill="none" xmlns="http://www.w3.org/2000/svg">
<path d="M0 128.005C0 113.645 11.6406 102.005 26 102.005H142C156.359 102.005 168 113.645 168 128.005V207.009H26C11.6406 207.009 0 195.369 0 181.009V128.005Z" fill="#E4F0F5"/>
<path d="M257 219.012C257 226.191 251.18 232.012 244 232.012H191C183.82 232.012 178 226.191 178 219.012V183.009H244C251.18 183.009 257 188.83 257 196.009V219.012Z" fill="#E4F0F5"/>
<rect x="115" width="204" height="152.007" rx="12" fill="#0F1830"/>
<rect x="120" y="5" width="194" height="142.007" rx="8" fill="white"/>
<path d="M136.529 21.2459C135 21.2459 135 19.899 135 19.899V10H146V19.899C146 19.899 146 21.2459 144.471 21.2459H142.077C141.556 21.2459 140.548 22 140.548 22C140.548 22 139.444 21.2459 138.923 21.2459H136.529Z" fill="#F23C29"/>
<path d="M231 47L223 47C221.895 47 221 47.8954 221 49L221 57C221 58.1046 221.895 59 223 59L231 59C232.105 59 233 58.1046 233 57L233 49C233 47.8954 232.105 47 231 47Z" fill="#0061AE"/>
<path d="M225.037 52.9847L226.452 55.0481L229.385 51.2502" stroke="white" stroke-width="1.5" stroke-linecap="round" stroke-linejoin="round"/>
<path d="M137 47.5075L210 47.5075C210.824 47.5075 211.493 48.1757 211.493 49L211.493 57C211.493 57.8243 210.824 58.4925 210 58.4925L137 58.4925C136.176 58.4925 135.507 57.8243 135.507 57L135.507 49C135.507 48.1757 136.176 47.5075 137 47.5075Z" stroke="#DADFE2" stroke-width="1.015"/>
<path d="M231 70.0032L223 70.0032C221.895 70.0032 221 70.8986 221 72.0032L221 80.0032C221 81.1077 221.895 82.0032 223 82.0032L231 82.0032C232.105 82.0032 233 81.1077 233 80.0032L233 72.0032C233 70.8986 232.105 70.0032 231 70.0032Z" fill="#0061AE"/>
<path d="M225.037 75.9871L226.452 78.0506L229.385 74.2527" stroke="white" stroke-width="1.5" stroke-linecap="round" stroke-linejoin="round"/>
<path d="M137 70.5107L210 70.5107C210.824 70.5107 211.493 71.1789 211.493 72.0032L211.493 80.0032C211.493 80.8275 210.824 81.4957 210 81.4957L137 81.4957C136.176 81.4957 135.507 80.8275 135.507 80.0032L135.507 72.0032C135.507 71.1789 136.176 70.5107 137 70.5107Z" stroke="#DADFE2" stroke-width="1.015"/>
<path d="M231 93.0044L223 93.0044C221.895 93.0044 221 93.8998 221 95.0044L221 103.004C221 104.109 221.895 105.004 223 105.004L231 105.004C232.105 105.004 233 104.109 233 103.004L233 95.0044C233 93.8998 232.105 93.0044 231 93.0044Z" fill="#0061AE"/>
<path d="M225.037 98.9893L226.452 101.053L229.385 97.2549" stroke="white" stroke-width="1.5" stroke-linecap="round" stroke-linejoin="round"/>
<path d="M137 93.5119L210 93.5119C210.824 93.5119 211.493 94.1801 211.493 95.0044L211.493 103.004C211.493 103.829 210.824 104.497 210 104.497L137 104.497C136.176 104.497 135.507 103.829 135.507 103.004L135.507 95.0044C135.507 94.1801 136.176 93.5119 137 93.5119Z" stroke="#DADFE2" stroke-width="1.015"/>
<path d="M297 126.004L268 126.004C266.895 126.004 266 126.899 266 128.004L266 135.004C266 136.108 266.895 137.004 268 137.004L297 137.004C298.105 137.004 299 136.108 299 135.004L299 128.004C299 126.899 298.105 126.004 297 126.004Z" fill="#00C259"/>
</svg>
