<svg width="65" height="65" viewBox="0 0 65 65" fill="none" xmlns="http://www.w3.org/2000/svg">
<circle cx="32.5" cy="32.5" r="32.5" fill="#0061AE"/>
<path d="M22.2224 24.4205C21.9493 24.1465 21.7327 23.8211 21.5848 23.463C21.437 23.1049 21.3609 22.721 21.3609 22.3333C21.3609 21.9457 21.437 21.5618 21.5848 21.2037C21.7327 20.8455 21.9493 20.5202 22.2224 20.2462L31.571 10.8652C31.9814 10.4526 32.5044 10.1714 33.0738 10.0572C33.6432 9.94292 34.2336 10.0007 34.7704 10.2233C35.3071 10.4458 35.7661 10.8232 36.0894 11.3076C36.4127 11.792 36.5858 12.3618 36.5868 12.945C36.586 13.2371 36.544 13.5276 36.462 13.8078C36.462 13.8816 36.4106 13.9553 36.3812 14.0365C36.2327 14.401 36.0129 14.732 35.7349 15.01L26.379 24.4205C26.1062 24.6947 25.7822 24.9123 25.4256 25.0608C25.069 25.2092 24.6868 25.2856 24.3007 25.2856C23.9147 25.2856 23.5324 25.2092 23.1758 25.0608C22.8192 24.9123 22.4953 24.6947 22.2224 24.4205Z" fill="white"/>
<path d="M31.7767 30.468L14.5042 47.7918C14.2988 47.9969 14.0377 48.1363 13.7536 48.1927C13.4695 48.2492 13.1751 48.22 12.9075 48.1088C12.6399 47.9977 12.411 47.8096 12.2495 47.5682C12.088 47.3267 12.0012 47.0428 12 46.7519C12.0132 46.3659 12.1767 46.0005 12.4553 45.7342L29.7205 28.3735C30.5159 28.9533 31.2107 29.661 31.7767 30.468Z" fill="white"/>
<path d="M34.6922 32.7616L34.5894 32.8722C34.0732 31.1447 33.1391 29.5725 31.8705 28.2959C30.6019 27.0193 29.0382 26.078 27.3191 25.5562L27.4219 25.4603L36.7632 16.0793C36.8366 16.0056 36.91 15.9245 36.9761 15.8433C37.4707 17.5863 38.4 19.1737 39.6761 20.4552C40.9522 21.7368 42.5329 22.67 44.2685 23.1667L44.0335 23.3806L34.6922 32.7616Z" fill="white"/>
<path d="M50.092 26.5076C50.0913 26.8956 50.0145 27.2797 49.8658 27.6378C49.7171 27.996 49.4995 28.3211 49.2254 28.5947L39.8842 37.9831C39.6114 38.2574 39.2874 38.4749 38.9308 38.6234C38.5742 38.7719 38.1919 38.8483 37.8059 38.8483C37.4199 38.8483 37.0376 38.7719 36.681 38.6234C36.3244 38.4749 36.0004 38.2574 35.7276 37.9831C35.4549 37.7089 35.2387 37.3835 35.0913 37.0254C34.9438 36.6672 34.8681 36.2835 34.8684 35.896C34.8683 35.5828 34.9179 35.2716 35.0153 34.9741C35.0316 34.9164 35.0512 34.8598 35.074 34.8045C35.217 34.4287 35.4401 34.0889 35.7276 33.8088L45.0762 24.4205C45.362 24.1349 45.7049 23.9137 46.0823 23.7714C46.146 23.7428 46.2125 23.7205 46.2806 23.7051C46.5698 23.6101 46.8723 23.5628 47.1765 23.5649C47.9556 23.5649 48.7028 23.8758 49.2537 24.429C49.8045 24.9822 50.114 25.7326 50.114 26.5149L50.092 26.5076Z" fill="white"/>
<path d="M51.2229 44.9967H33.5979C33.0136 44.9967 32.4532 45.2298 32.0401 45.6447C31.6269 46.0597 31.3948 46.6224 31.3948 47.2092C31.3948 47.796 31.6269 48.3588 32.0401 48.7737C32.4532 49.1886 33.0136 49.4217 33.5979 49.4217H51.2229C51.8072 49.4217 52.3676 49.1886 52.7808 48.7737C53.1939 48.3588 53.4261 47.796 53.4261 47.2092C53.4261 46.6224 53.1939 46.0597 52.7808 45.6447C52.3676 45.2298 51.8072 44.9967 51.2229 44.9967Z" fill="white"/>
</svg>
