<svg width="30" height="34" viewBox="0 0 30 34" fill="none" xmlns="http://www.w3.org/2000/svg">
<path d="M17.4445 15.2844H8.54309C8.19277 15.2844 7.90614 14.9927 7.90614 14.6362C7.90614 14.2798 8.19277 13.9881 8.54309 13.9881H16.0671C14.3234 12.0436 13.2645 9.45908 13.2645 6.61528C13.2645 5.0597 13.583 3.53652 14.1642 2.2402H7.08607V6.04004C7.08607 7.9197 5.60516 9.45097 3.76597 9.45097H0V31.3912C0 32.8171 1.17836 34 2.57965 34H21.6324C23.0337 34 24.2041 32.8171 24.2041 31.3912V17.5773C24.1245 17.5773 24.1086 17.5854 24.0608 17.5854C21.5767 17.5854 19.2677 16.7428 17.4445 15.2844ZM5.31853 28.2476H2.96978C2.61946 28.2476 2.33283 27.9559 2.33283 27.5994C2.33283 27.2429 2.61946 26.9513 2.96978 26.9513H5.31853C5.66886 26.9513 5.95548 27.2429 5.95548 27.5994C5.95548 27.9559 5.66886 28.2476 5.31853 28.2476ZM5.31853 21.766H2.96978C2.61946 21.766 2.33283 21.4743 2.33283 21.1178C2.33283 20.7613 2.61946 20.4697 2.96978 20.4697H5.31853C5.66886 20.4697 5.95548 20.7613 5.95548 21.1178C5.95548 21.4743 5.66886 21.766 5.31853 21.766ZM5.31853 15.2844H2.96978C2.61946 15.2844 2.33283 14.9927 2.33283 14.6362C2.33283 14.2798 2.61946 13.9881 2.96978 13.9881H5.31853C5.66886 13.9881 5.95548 14.2798 5.95548 14.6362C5.95548 14.9927 5.66886 15.2844 5.31853 15.2844ZM21.2423 28.2476H8.54309C8.19277 28.2476 7.90614 27.9559 7.90614 27.5994C7.90614 27.2429 8.19277 26.9513 8.54309 26.9513H21.2423C21.5926 26.9513 21.8792 27.2429 21.8792 27.5994C21.8792 27.9559 21.5926 28.2476 21.2423 28.2476ZM21.2423 21.766H8.54309C8.19277 21.766 7.90614 21.4743 7.90614 21.1178C7.90614 20.7613 8.19277 20.4697 8.54309 20.4697H21.2423C21.5926 20.4697 21.8792 20.7613 21.8792 21.1178C21.8792 21.4743 21.5926 21.766 21.2423 21.766Z" fill="#0061AE"/>
<path d="M5.81217 6.04004V3.13142L0.93154 8.15466H3.76597C4.90452 8.15466 5.81217 7.20672 5.81217 6.04004Z" fill="#0061AE"/>
<path d="M22.6271 0C18.5612 0 15.2542 3.35042 15.2542 7.4697C15.2542 11.589 18.5612 14.9394 22.6271 14.9394C26.693 14.9394 30 11.589 30 7.4697C30.0062 3.35667 26.6992 0 22.6271 0ZM25.3542 6.27579L22.3865 9.28242C22.2939 9.37619 22.1706 9.42619 22.0348 9.42619C21.9053 9.42619 21.7757 9.37619 21.6831 9.28242L20.0173 7.58221C19.826 7.38844 19.826 7.06964 20.0235 6.87587C20.2147 6.6821 20.5294 6.6821 20.7207 6.88212L22.0348 8.22604L24.6508 5.57571C24.8421 5.38193 25.1567 5.38193 25.348 5.57571C25.5454 5.76323 25.5454 6.08202 25.3542 6.27579Z" fill="#0061AE"/>
</svg>
