<svg width="286" height="3" viewBox="0 0 286 3" fill="none" xmlns="http://www.w3.org/2000/svg">
<ellipse cx="37.2935" cy="1.54922" rx="0.859921" ry="0.85" fill="#AEAEAE"/>
<ellipse cx="33.2427" cy="1.54922" rx="0.859921" ry="0.85" fill="#AEAEAE"/>
<ellipse cx="29.1959" cy="1.54922" rx="0.859921" ry="0.85" fill="#AEAEAE"/>
<ellipse cx="25.1529" cy="1.54922" rx="0.859921" ry="0.85" fill="#AEAEAE"/>
<ellipse cx="21.106" cy="1.54922" rx="0.859921" ry="0.85" fill="#AEAEAE"/>
<ellipse cx="17.0591" cy="1.54922" rx="0.859921" ry="0.85" fill="#AEAEAE"/>
<ellipse cx="13.0084" cy="1.54922" rx="0.859921" ry="0.85" fill="#AEAEAE"/>
<ellipse cx="8.96539" cy="1.54922" rx="0.859921" ry="0.85" fill="#AEAEAE"/>
<ellipse cx="4.91852" cy="1.54922" rx="0.859921" ry="0.85" fill="#AEAEAE"/>
<ellipse cx="0.87164" cy="1.54922" rx="0.859921" ry="0.85" fill="#AEAEAE"/>
<ellipse cx="45.3873" cy="1.54922" rx="0.859921" ry="0.85" fill="#AEAEAE"/>
<ellipse cx="53.4771" cy="1.54922" rx="0.859921" ry="0.85" fill="#AEAEAE"/>
<ellipse cx="61.5748" cy="1.54922" rx="0.859921" ry="0.85" fill="#AEAEAE"/>
<ellipse cx="69.6646" cy="1.54922" rx="0.859921" ry="0.85" fill="#AEAEAE"/>
<ellipse cx="77.7623" cy="1.54922" rx="0.859921" ry="0.85" fill="#AEAEAE"/>
<ellipse cx="85.8521" cy="1.54922" rx="0.859921" ry="0.85" fill="#AEAEAE"/>
<ellipse cx="93.9459" cy="1.54922" rx="0.859921" ry="0.85" fill="#AEAEAE"/>
<ellipse cx="102.04" cy="1.54922" rx="0.859921" ry="0.85" fill="#AEAEAE"/>
<ellipse cx="110.133" cy="1.54922" rx="0.859921" ry="0.85" fill="#AEAEAE"/>
<ellipse cx="118.227" cy="1.54922" rx="0.859921" ry="0.85" fill="#AEAEAE"/>
<ellipse cx="126.321" cy="1.54922" rx="0.859921" ry="0.85" fill="#AEAEAE"/>
<ellipse cx="134.411" cy="1.54922" rx="0.859921" ry="0.85" fill="#AEAEAE"/>
<ellipse cx="142.508" cy="1.54922" rx="0.859921" ry="0.85" fill="#AEAEAE"/>
<ellipse cx="150.598" cy="1.54922" rx="0.859921" ry="0.85" fill="#AEAEAE"/>
<ellipse cx="158.696" cy="1.54922" rx="0.859921" ry="0.85" fill="#AEAEAE"/>
<ellipse cx="166.786" cy="1.54922" rx="0.859921" ry="0.85" fill="#AEAEAE"/>
<ellipse cx="174.879" cy="1.54922" rx="0.859921" ry="0.85" fill="#AEAEAE"/>
<ellipse cx="182.973" cy="1.54922" rx="0.859921" ry="0.85" fill="#AEAEAE"/>
<ellipse cx="191.067" cy="1.54922" rx="0.859921" ry="0.85" fill="#AEAEAE"/>
<ellipse cx="199.157" cy="1.54922" rx="0.859921" ry="0.85" fill="#AEAEAE"/>
<ellipse cx="207.254" cy="1.54922" rx="0.859921" ry="0.85" fill="#AEAEAE"/>
<ellipse cx="215.344" cy="1.54922" rx="0.859921" ry="0.85" fill="#AEAEAE"/>
<ellipse cx="223.442" cy="1.54922" rx="0.859921" ry="0.85" fill="#AEAEAE"/>
<ellipse cx="231.532" cy="1.54922" rx="0.859921" ry="0.85" fill="#AEAEAE"/>
<ellipse cx="239.626" cy="1.54922" rx="0.859921" ry="0.85" fill="#AEAEAE"/>
<ellipse cx="247.719" cy="1.54922" rx="0.859921" ry="0.85" fill="#AEAEAE"/>
<ellipse cx="255.813" cy="1.54922" rx="0.859921" ry="0.85" fill="#AEAEAE"/>
<ellipse cx="263.907" cy="1.54922" rx="0.859921" ry="0.85" fill="#AEAEAE"/>
<ellipse cx="41.3404" cy="1.54922" rx="0.859921" ry="0.85" fill="#AEAEAE"/>
<ellipse cx="49.4302" cy="1.54922" rx="0.859921" ry="0.85" fill="#AEAEAE"/>
<ellipse cx="57.5279" cy="1.54922" rx="0.859921" ry="0.85" fill="#AEAEAE"/>
<ellipse cx="65.6177" cy="1.54922" rx="0.859921" ry="0.85" fill="#AEAEAE"/>
<ellipse cx="73.7115" cy="1.54922" rx="0.859921" ry="0.85" fill="#AEAEAE"/>
<ellipse cx="81.8052" cy="1.54922" rx="0.859921" ry="0.85" fill="#AEAEAE"/>
<ellipse cx="89.899" cy="1.54922" rx="0.859921" ry="0.85" fill="#AEAEAE"/>
<ellipse cx="97.9927" cy="1.54922" rx="0.859921" ry="0.85" fill="#AEAEAE"/>
<ellipse cx="106.086" cy="1.54922" rx="0.859921" ry="0.85" fill="#AEAEAE"/>
<ellipse cx="114.176" cy="1.54922" rx="0.859921" ry="0.85" fill="#AEAEAE"/>
<ellipse cx="122.274" cy="1.54922" rx="0.859921" ry="0.85" fill="#AEAEAE"/>
<ellipse cx="130.364" cy="1.54922" rx="0.859921" ry="0.85" fill="#AEAEAE"/>
<ellipse cx="138.461" cy="1.54922" rx="0.859921" ry="0.85" fill="#AEAEAE"/>
<ellipse cx="146.551" cy="1.54922" rx="0.859921" ry="0.85" fill="#AEAEAE"/>
<ellipse cx="154.645" cy="1.54922" rx="0.859921" ry="0.85" fill="#AEAEAE"/>
<ellipse cx="162.743" cy="1.54922" rx="0.859921" ry="0.85" fill="#AEAEAE"/>
<ellipse cx="170.833" cy="1.54922" rx="0.859921" ry="0.85" fill="#AEAEAE"/>
<ellipse cx="178.926" cy="1.54922" rx="0.859921" ry="0.85" fill="#AEAEAE"/>
<ellipse cx="187.02" cy="1.54922" rx="0.859921" ry="0.85" fill="#AEAEAE"/>
<ellipse cx="195.114" cy="1.54922" rx="0.859921" ry="0.85" fill="#AEAEAE"/>
<ellipse cx="203.208" cy="1.54922" rx="0.859921" ry="0.85" fill="#AEAEAE"/>
<ellipse cx="211.301" cy="1.54922" rx="0.859921" ry="0.85" fill="#AEAEAE"/>
<ellipse cx="219.391" cy="1.54922" rx="0.859921" ry="0.85" fill="#AEAEAE"/>
<ellipse cx="227.489" cy="1.54922" rx="0.859921" ry="0.85" fill="#AEAEAE"/>
<ellipse cx="235.579" cy="1.54922" rx="0.859921" ry="0.85" fill="#AEAEAE"/>
<ellipse cx="243.676" cy="1.54922" rx="0.859921" ry="0.85" fill="#AEAEAE"/>
<ellipse cx="251.766" cy="1.54922" rx="0.859921" ry="0.85" fill="#AEAEAE"/>
<ellipse cx="259.86" cy="1.54922" rx="0.859921" ry="0.85" fill="#AEAEAE"/>
<ellipse cx="267.954" cy="1.54922" rx="0.859921" ry="0.85" fill="#AEAEAE"/>
<ellipse cx="272.001" cy="1.54922" rx="0.859921" ry="0.85" fill="#AEAEAE"/>
<ellipse cx="276.047" cy="1.54922" rx="0.859921" ry="0.85" fill="#AEAEAE"/>
<ellipse cx="280.094" cy="1.54922" rx="0.859921" ry="0.85" fill="#AEAEAE"/>
<ellipse cx="284.141" cy="1.54922" rx="0.859921" ry="0.85" fill="#AEAEAE"/>
</svg>
