<svg width="33" height="31" viewBox="0 0 33 31" fill="none" xmlns="http://www.w3.org/2000/svg">
<path d="M8.59071 11.5745C8.3838 11.3692 8.21965 11.1254 8.10765 10.857C7.99566 10.5887 7.93801 10.3011 7.93801 10.0106C7.93801 9.7201 7.99566 9.43246 8.10765 9.16412C8.21965 8.89578 8.3838 8.652 8.59071 8.44671L15.6733 1.41758C15.9842 1.10843 16.3804 0.897737 16.8118 0.812127C17.2432 0.726517 17.6905 0.769827 18.0971 0.936587C18.5037 1.10335 18.8515 1.38607 19.0964 1.74905C19.3414 2.11202 19.4725 2.53896 19.4732 2.97592C19.4726 3.1948 19.4408 3.41248 19.3787 3.62247C19.3787 3.67773 19.3397 3.73299 19.3175 3.79378C19.2049 4.06695 19.0385 4.31498 18.8279 4.52322L11.7397 11.5745C11.5331 11.78 11.2876 11.943 11.0175 12.0542C10.7473 12.1655 10.4577 12.2227 10.1652 12.2227C9.87277 12.2227 9.58318 12.1655 9.31301 12.0542C9.04284 11.943 8.7974 11.78 8.59071 11.5745Z" fill="#0061AE"/>
<path d="M15.8291 16.1058L2.74334 29.0865C2.58774 29.2401 2.38989 29.3446 2.17466 29.3869C1.95942 29.4292 1.73641 29.4073 1.53366 29.324C1.33091 29.2407 1.15747 29.0998 1.03514 28.9189C0.912811 28.738 0.847052 28.5252 0.84613 28.3073C0.856146 28.0181 0.979999 27.7443 1.19108 27.5447L14.2713 14.5364C14.8739 14.9709 15.4002 15.5011 15.8291 16.1058Z" fill="#0061AE"/>
<path d="M18.0379 17.8244L17.96 17.9073C17.5689 16.6129 16.8613 15.4348 15.9001 14.4783C14.939 13.5217 13.7544 12.8165 12.452 12.4255L12.5299 12.3536L19.6068 5.32449C19.6625 5.26923 19.7181 5.20844 19.7682 5.14766C20.1429 6.45366 20.8469 7.64308 21.8137 8.60333C22.7805 9.56358 23.978 10.2629 25.2929 10.635L25.1149 10.7953L18.0379 17.8244Z" fill="#0061AE"/>
<path d="M29.7048 13.1383C29.7043 13.4291 29.6461 13.7169 29.5334 13.9852C29.4208 14.2536 29.2559 14.4972 29.0483 14.7022L21.9713 21.7368C21.7647 21.9424 21.5192 22.1054 21.2491 22.2166C20.9789 22.3279 20.6893 22.3851 20.3968 22.3851C20.1044 22.3851 19.8148 22.3279 19.5446 22.2166C19.2744 22.1054 19.029 21.9424 18.8223 21.7368C18.6157 21.5314 18.4519 21.2876 18.3402 21.0192C18.2285 20.7509 18.1711 20.4633 18.1714 20.173C18.1713 19.9383 18.2089 19.7051 18.2826 19.4822C18.295 19.439 18.3098 19.3966 18.3271 19.3551C18.4355 19.0736 18.6045 18.8189 18.8223 18.6091L25.9049 11.5744C26.1213 11.3605 26.3812 11.1947 26.6671 11.0882C26.7154 11.0667 26.7657 11.05 26.8173 11.0384C27.0364 10.9673 27.2656 10.9318 27.4961 10.9334C28.0863 10.9334 28.6524 11.1663 29.0697 11.5808C29.4871 11.9954 29.7215 12.5576 29.7215 13.1438L29.7048 13.1383Z" fill="#0061AE"/>
<path d="M30.5616 26.9921H17.2088C16.7662 26.9921 16.3416 27.1668 16.0286 27.4777C15.7156 27.7886 15.5397 28.2103 15.5397 28.6499C15.5397 29.0896 15.7156 29.5113 16.0286 29.8222C16.3416 30.1331 16.7662 30.3077 17.2088 30.3077H30.5616C31.0043 30.3077 31.4289 30.1331 31.7419 29.8222C32.0549 29.5113 32.2307 29.0896 32.2307 28.6499C32.2307 28.2103 32.0549 27.7886 31.7419 27.4777C31.4289 27.1668 31.0043 26.9921 30.5616 26.9921Z" fill="#0061AE"/>
</svg>
