<svg width="39" height="50" viewBox="0 0 39 50" fill="none" xmlns="http://www.w3.org/2000/svg">
<path d="M36.2536 0H34.9732C34.9732 0.511341 34.7748 0.970237 34.4483 1.31113C34.1154 1.65203 33.6545 1.86836 33.1423 1.86836C32.6366 1.86836 32.1692 1.65203 31.8427 1.31113C31.5163 0.970237 31.3178 0.511341 31.3178 0H30.0374H27.1566H25.8762C25.8698 0.511341 25.6714 0.970237 25.3513 1.31113C25.0184 1.65203 24.5575 1.86836 24.0453 1.86836C23.5396 1.86836 23.0722 1.65203 22.7457 1.31113C22.4192 0.970237 22.2208 0.511341 22.2208 0H20.9404H18.0596H16.7792C16.7792 0.511341 16.5808 0.970237 16.2543 1.31113C15.9214 1.65203 15.4604 1.86836 14.9483 1.86836C14.4425 1.86836 13.9752 1.65203 13.6487 1.31113C13.3222 0.970237 13.1238 0.511341 13.1238 0H11.8434H8.96257H7.68221C7.68221 0.511341 7.48375 0.970237 7.15726 1.31113C6.82436 1.65203 6.36343 1.86836 5.85128 1.86836C5.34554 1.86836 4.8782 1.65203 4.55171 1.31113C4.22521 0.970237 4.02676 0.511341 4.02676 0H2.74639H0V3.18605V4.49718C0.505745 4.49718 0.953874 4.70696 1.28037 5.0413C1.61967 5.37564 1.82452 5.84765 1.82452 6.36554C1.82452 6.88344 1.61967 7.35545 1.28037 7.69634C0.953874 8.03068 0.505745 8.24046 0 8.24046V9.55159V12.5016V13.8128C0.505745 13.8128 0.953874 14.0226 1.28037 14.3569C1.61967 14.6912 1.82452 15.1632 1.82452 15.6811C1.82452 16.199 1.61967 16.671 1.28037 17.0119C0.953874 17.3463 0.505745 17.5561 0 17.5561V18.8672V21.8172V23.1284C0.505745 23.1284 0.953874 23.3381 1.28037 23.6725C1.61967 24.0068 1.82452 24.4788 1.82452 24.9967C1.82452 25.5146 1.61967 25.9866 1.28037 26.3275C0.953874 26.6619 0.505745 26.8716 0 26.8716V28.1828V31.1328V32.444C0.505745 32.444 0.953874 32.6537 1.28037 32.9881C1.61967 33.3224 1.82452 33.7944 1.82452 34.3123C1.82452 34.8302 1.61967 35.3022 1.28037 35.6431C0.953874 35.9775 0.505745 36.1872 0 36.1872V37.4984V40.4484V41.7595C0.505745 41.7595 0.953874 41.9693 1.28037 42.3037C1.61967 42.638 1.82452 43.11 1.82452 43.6279C1.82452 44.1458 1.61967 44.6178 1.28037 44.9587C0.953874 45.293 0.505745 45.5028 0 45.5028V46.814V50H2.74639H4.02676C4.02676 49.4887 4.22521 49.0298 4.55171 48.6889C4.8782 48.3414 5.34554 48.1316 5.85128 48.1251C6.36343 48.1316 6.82436 48.3414 7.15726 48.6889C7.48375 49.0298 7.68221 49.4887 7.68221 50H8.96257H11.8434H13.1238C13.1238 49.4887 13.3222 49.0298 13.6487 48.6889C13.9752 48.3414 14.4425 48.1316 14.9483 48.1251C15.4604 48.1316 15.9214 48.3414 16.2543 48.6889C16.5808 49.0298 16.7792 49.4887 16.7792 50H18.0596H20.9404H22.2208C22.2208 49.4887 22.4192 49.0298 22.7457 48.6889C23.0722 48.3414 23.5396 48.1316 24.0453 48.1251C24.5575 48.1316 25.0184 48.3414 25.3513 48.6889C25.6714 49.0298 25.8698 49.4887 25.8762 50H27.1566H30.0374H31.3178C31.3178 49.4887 31.5163 49.0298 31.8427 48.6889C32.1692 48.3414 32.6366 48.1316 33.1423 48.1251C33.6545 48.1316 34.1154 48.3414 34.4483 48.6889C34.7748 49.0298 34.9732 49.4887 34.9732 50H36.2536H39V46.814V45.5028C38.5007 45.5028 38.0525 45.2996 37.7196 44.9653C37.3803 44.6244 37.1755 44.1524 37.1691 43.6279C37.1755 43.11 37.3803 42.6314 37.7196 42.2971C38.0525 41.9628 38.5007 41.7595 39 41.7595V40.4484V37.4984V36.1872C38.5007 36.1872 38.0525 35.984 37.7196 35.6497C37.3803 35.3088 37.1755 34.8368 37.1691 34.3123C37.1755 33.7944 37.3803 33.3159 37.7196 32.9815C38.0525 32.6472 38.5007 32.444 39 32.444V31.1328V28.1828V26.8716C38.5007 26.8716 38.0525 26.6684 37.7196 26.3341C37.3803 25.9932 37.1755 25.5212 37.1691 24.9967C37.1755 24.4788 37.3803 24.0003 37.7196 23.6659C38.0525 23.3316 38.5007 23.1284 39 23.1284V21.8172V18.8672V17.5561C38.5007 17.5561 38.0525 17.3528 37.7196 17.0185C37.3803 16.6776 37.1755 16.2056 37.1691 15.6811C37.1755 15.1632 37.3803 14.6847 37.7196 14.3503C38.0525 14.016 38.5007 13.8128 39 13.8128V12.5016V9.55159V8.24046C38.5007 8.24046 38.0525 8.03724 37.7196 7.7029C37.3803 7.362 37.1755 6.89 37.1691 6.36554C37.1755 5.84765 37.3803 5.36908 37.7196 5.03475C38.0525 4.70041 38.5007 4.49718 39 4.49718V3.18605V0H36.2536ZM35.8887 6.36554C35.8887 7.65701 36.6377 8.77147 37.7196 9.2697V12.7835C36.6377 13.2818 35.8887 14.3897 35.8887 15.6811C35.8887 16.9726 36.6377 18.0871 37.7196 18.5853V22.0991C36.6377 22.5974 35.8887 23.7053 35.8887 24.9967C35.8887 26.2882 36.6377 27.4027 37.7196 27.9009V31.4147C36.6377 31.9129 35.8887 33.0208 35.8887 34.3123C35.8887 35.6038 36.6377 36.7117 37.7196 37.2165V40.7303C36.6377 41.2285 35.8887 42.3364 35.8887 43.6279C35.8887 44.9194 36.6377 46.0338 37.7196 46.5321V48.6889H35.9783C35.4854 47.581 34.4035 46.814 33.1423 46.814C31.8812 46.814 30.7992 47.581 30.3127 48.6889H26.8749C26.3884 47.581 25.3065 46.814 24.0453 46.814C22.7841 46.814 21.7022 47.581 21.2157 48.6889H17.7843C17.2914 47.581 16.2095 46.814 14.9483 46.814C13.6871 46.814 12.6052 47.581 12.1187 48.6889H8.68089C8.20076 47.581 7.11244 46.814 5.85128 46.814C4.59012 46.814 3.50821 47.581 3.02167 48.6889H1.28037V46.5321C2.35588 46.0338 3.10489 44.9194 3.10489 43.6279C3.10489 42.3364 2.35588 41.2285 1.28037 40.7303V37.2165C2.35588 36.7117 3.10489 35.6038 3.10489 34.3123C3.10489 33.0208 2.35588 31.9129 1.28037 31.4147V27.9009C2.35588 27.4027 3.10489 26.2882 3.10489 24.9967C3.10489 23.7053 2.35588 22.5974 1.28037 22.0991V18.5853C2.35588 18.0871 3.10489 16.9726 3.10489 15.6811C3.10489 14.3897 2.35588 13.2818 1.28037 12.7835V9.2697C2.35588 8.77147 3.10489 7.65701 3.10489 6.36554C3.10489 5.07408 2.35588 3.96617 1.28037 3.46794V1.31113H3.02167C3.50821 2.41248 4.59012 3.17949 5.85128 3.17949C7.11244 3.17949 8.19435 2.41248 8.68089 1.31113H12.1187C12.6052 2.41248 13.6871 3.17949 14.9483 3.17949C16.2095 3.17949 17.2914 2.41248 17.7843 1.31113H21.2157C21.7022 2.41248 22.7841 3.17949 24.0453 3.17949C25.3065 3.17949 26.3884 2.41248 26.8749 1.31113H30.3127C30.7992 2.41248 31.8812 3.17949 33.1423 3.17949C34.4035 3.17949 35.4854 2.41248 35.9783 1.31113H37.7196V3.46794C36.6377 3.96617 35.8887 5.07408 35.8887 6.36554Z" fill="#0061AE"/>
<path d="M7.8772 9.06036C8.35195 9.06036 8.73682 8.66599 8.73682 8.17944C8.73682 7.69417 8.35195 7.2998 7.8772 7.2998C7.40245 7.2998 7.01758 7.69417 7.01758 8.17944C7.01758 8.66599 7.40245 9.06036 7.8772 9.06036Z" fill="#0061AE"/>
<path d="M7.8772 12.118C8.35195 12.118 8.73682 11.7236 8.73682 11.237C8.73682 10.7518 8.35195 10.3574 7.8772 10.3574C7.40245 10.3574 7.01758 10.7518 7.01758 11.237C7.01758 11.7236 7.40245 12.118 7.8772 12.118Z" fill="#0061AE"/>
<path d="M8.73682 14.2959C8.73682 14.7825 8.35195 15.1768 7.8772 15.1768C7.64659 15.1768 7.43723 15.0834 7.28289 14.931L7.23014 14.8747C7.20302 14.8427 7.17801 14.8094 7.15551 14.7735C7.06822 14.6365 7.01758 14.4726 7.01758 14.2959C7.01758 13.8106 7.40245 13.4163 7.8772 13.4163C8.09812 13.4163 8.29959 13.5021 8.45182 13.6416C8.62679 13.803 8.73682 14.036 8.73682 14.2959Z" fill="#0061AE"/>
<path d="M7.8772 18.2344C8.35195 18.2344 8.73682 17.8401 8.73682 17.3535C8.73682 16.8682 8.35195 16.4739 7.8772 16.4739C7.40245 16.4739 7.01758 16.8682 7.01758 17.3535C7.01758 17.8401 7.40245 18.2344 7.8772 18.2344Z" fill="#0061AE"/>
<path d="M8.73682 20.4124C8.73682 20.899 8.35195 21.2933 7.8772 21.2933C7.40245 21.2933 7.01758 20.899 7.01758 20.4124C7.01758 19.9271 7.40245 19.5328 7.8772 19.5328C8.02888 19.5328 8.17143 19.5725 8.29513 19.6429C8.55865 19.794 8.73682 20.0821 8.73682 20.4124Z" fill="#0061AE"/>
<path d="M7.8772 24.3509C8.35195 24.3509 8.73682 23.9566 8.73682 23.47C8.73682 22.9847 8.35195 22.5904 7.8772 22.5904C7.40245 22.5904 7.01758 22.9847 7.01758 23.47C7.01758 23.9566 7.40245 24.3509 7.8772 24.3509Z" fill="#0061AE"/>
<path d="M8.73682 26.5289C8.73682 27.0154 8.35195 27.4098 7.8772 27.4098C7.40245 27.4098 7.01758 27.0154 7.01758 26.5289C7.01758 26.0436 7.40245 25.6492 7.8772 25.6492C8.149 25.6492 8.39133 25.7786 8.54888 25.9796C8.66649 26.1307 8.73682 26.3215 8.73682 26.5289Z" fill="#0061AE"/>
<path d="M7.8772 30.4674C8.35195 30.4674 8.73682 30.073 8.73682 29.5865C8.73682 29.1012 8.35195 28.7068 7.8772 28.7068C7.40245 28.7068 7.01758 29.1012 7.01758 29.5865C7.01758 30.073 7.40245 30.4674 7.8772 30.4674Z" fill="#0061AE"/>
<path d="M8.73682 32.6454C8.73682 33.1319 8.35195 33.5263 7.8772 33.5263C7.40245 33.5263 7.01758 33.1319 7.01758 32.6454C7.01758 32.1601 7.40245 31.7657 7.8772 31.7657C8.35195 31.7657 8.73682 32.1601 8.73682 32.6454Z" fill="#0061AE"/>
<path d="M7.8772 36.5839C8.35195 36.5839 8.73682 36.1895 8.73682 35.703C8.73682 35.2177 8.35195 34.8233 7.8772 34.8233C7.40245 34.8233 7.01758 35.2177 7.01758 35.703C7.01758 36.1895 7.40245 36.5839 7.8772 36.5839Z" fill="#0061AE"/>
<path d="M8.73682 38.7618C8.73682 39.2484 8.35195 39.6428 7.8772 39.6428C7.65401 39.6428 7.45075 39.5557 7.29789 39.4123C7.12566 39.251 7.01758 39.0192 7.01758 38.7618C7.01758 38.2766 7.40245 37.8822 7.8772 37.8822C8.35195 37.8822 8.73682 38.2766 8.73682 38.7618Z" fill="#0061AE"/>
<path d="M8.73674 41.831C8.73674 41.8271 8.73682 41.8233 8.73682 41.8194C8.73682 41.3342 8.35195 40.9398 7.8772 40.9398C7.8475 40.9398 7.8182 40.9424 7.78928 40.9449C7.3558 40.9897 7.01758 41.3649 7.01758 41.8194C7.01758 41.8502 7.01906 41.8796 7.02203 41.9091C7.06572 42.3495 7.42605 42.6952 7.8661 42.7004C7.86978 42.7004 7.87353 42.7004 7.8772 42.7004C8.34827 42.7004 8.7308 42.3124 8.73674 41.831Z" fill="#0061AE"/>
<path d="M10.7832 9.06036C11.2579 9.06036 11.6428 8.66599 11.6428 8.17944C11.6428 7.69417 11.2579 7.2998 10.7832 7.2998C10.3084 7.2998 9.92357 7.69417 9.92357 8.17944C9.92357 8.66599 10.3084 9.06036 10.7832 9.06036Z" fill="#0061AE"/>
<path d="M14.5488 8.17944C14.5488 8.66599 14.1639 9.06036 13.6892 9.06036C13.3853 9.06036 13.1183 8.89903 12.9654 8.65447C12.8794 8.51747 12.8296 8.35486 12.8296 8.17944C12.8296 7.69417 13.2144 7.2998 13.6892 7.2998C14.1639 7.2998 14.5488 7.69417 14.5488 8.17944Z" fill="#0061AE"/>
<path d="M16.5952 9.06036C17.0699 9.06036 17.4548 8.66599 17.4548 8.17944C17.4548 7.69417 17.0699 7.2998 16.5952 7.2998C16.1204 7.2998 15.7356 7.69417 15.7356 8.17944C15.7356 8.66599 16.1204 9.06036 16.5952 9.06036Z" fill="#0061AE"/>
<path d="M20.3608 8.17944C20.3608 8.66599 19.9759 9.06036 19.5012 9.06036C19.0264 9.06036 18.6415 8.66599 18.6415 8.17944C18.6415 7.69417 19.0264 7.2998 19.5012 7.2998C19.9759 7.2998 20.3608 7.69417 20.3608 8.17944Z" fill="#0061AE"/>
<path d="M22.4072 9.06036C22.8819 9.06036 23.2668 8.66599 23.2668 8.17944C23.2668 7.69417 22.8819 7.2998 22.4072 7.2998C21.9324 7.2998 21.5475 7.69417 21.5475 8.17944C21.5475 8.27035 21.5611 8.3587 21.5863 8.44192C21.6014 8.49058 21.6206 8.53795 21.6436 8.58405L21.6857 8.65831C21.7975 8.83501 21.9691 8.96817 22.1711 9.02707C22.2172 9.03987 22.2649 9.05011 22.3138 9.05524C22.3445 9.05908 22.3756 9.06036 22.4072 9.06036Z" fill="#0061AE"/>
<path d="M26.1728 8.17944C26.1728 8.66599 25.7879 9.06036 25.3131 9.06036C24.8384 9.06036 24.4535 8.66599 24.4535 8.17944C24.4535 7.69417 24.8384 7.2998 25.3131 7.2998C25.5722 7.2998 25.8045 7.4176 25.9621 7.60326C26.0933 7.75691 26.1728 7.95921 26.1728 8.17944Z" fill="#0061AE"/>
<path d="M28.2191 9.06036C28.6939 9.06036 29.0788 8.66599 29.0788 8.17944C29.0788 8.14743 29.077 8.11542 29.0737 8.08341C29.0695 8.04372 29.0627 8.00531 29.0535 7.96689L29.0339 7.89775L29.0225 7.86574C28.9532 7.6788 28.8241 7.52388 28.6592 7.42272C28.5996 7.38687 28.5352 7.35742 28.4673 7.33694C28.4319 7.32541 28.3954 7.31645 28.3582 7.31005C28.3129 7.30365 28.2665 7.2998 28.2191 7.2998C27.7444 7.2998 27.3595 7.69417 27.3595 8.17944C27.3595 8.66599 27.7444 9.06036 28.2191 9.06036Z" fill="#0061AE"/>
<path d="M31.9847 8.19096C31.9787 8.6724 31.5962 9.06036 31.1251 9.06036C30.8249 9.06036 30.5606 8.90287 30.4069 8.66343C30.3547 8.58277 30.3152 8.49186 30.2915 8.39583C30.2745 8.32669 30.2655 8.2537 30.2655 8.17944C30.2655 7.7249 30.6037 7.34974 31.0372 7.30493C31.0661 7.30237 31.0954 7.2998 31.1251 7.2998C31.5999 7.2998 31.9848 7.69417 31.9848 8.17944L31.9847 8.19096Z" fill="#0061AE"/>
<path d="M31.1251 40.9398C30.6503 40.9398 30.2654 41.3342 30.2654 41.8207C30.2654 42.306 30.6503 42.7004 31.1251 42.7004C31.5998 42.7004 31.9847 42.306 31.9847 41.8207C31.9847 41.7042 31.9628 41.5928 31.9229 41.4917C31.9106 41.4609 31.8912 41.42 31.8757 41.3905L31.85 41.347C31.8306 41.3162 31.8085 41.2855 31.7856 41.2573C31.6279 41.0627 31.3905 40.9398 31.1251 40.9398Z" fill="#0061AE"/>
<path d="M30.2654 38.7631C30.2654 38.2766 30.6503 37.8822 31.1251 37.8822C31.5998 37.8822 31.9847 38.2766 31.9847 38.7631C31.9847 39.2484 31.5998 39.6428 31.1251 39.6428C30.6503 39.6428 30.2654 39.2484 30.2654 38.7631Z" fill="#0061AE"/>
<path d="M31.1251 34.8233C30.6503 34.8233 30.2654 35.2177 30.2654 35.7042C30.2654 36.1895 30.6503 36.5839 31.1251 36.5839C31.5998 36.5839 31.9847 36.1895 31.9847 35.7042C31.9847 35.2177 31.5998 34.8233 31.1251 34.8233Z" fill="#0061AE"/>
<path d="M30.2654 32.6466C30.2654 32.1601 30.6503 31.7657 31.1251 31.7657C31.5998 31.7657 31.9847 32.1601 31.9847 32.6466C31.9847 33.1319 31.5998 33.5263 31.1251 33.5263C30.6503 33.5263 30.2654 33.1319 30.2654 32.6466Z" fill="#0061AE"/>
<path d="M31.1251 28.7068C30.6503 28.7068 30.2654 29.1012 30.2654 29.5878C30.2654 30.073 30.6503 30.4674 31.1251 30.4674C31.5998 30.4674 31.9847 30.073 31.9847 29.5878C31.9847 29.1012 31.5998 28.7068 31.1251 28.7068Z" fill="#0061AE"/>
<path d="M30.2654 26.5302C30.2654 26.3304 30.3305 26.146 30.4402 25.9975C30.5973 25.7862 30.8456 25.6492 31.1251 25.6492C31.5998 25.6492 31.9847 26.0436 31.9847 26.5302C31.9847 27.0154 31.5998 27.4098 31.1251 27.4098C30.6503 27.4098 30.2654 27.0154 30.2654 26.5302Z" fill="#0061AE"/>
<path d="M31.1251 22.5904C30.8951 22.5904 30.6863 22.6826 30.5321 22.8336C30.3678 22.9937 30.2654 23.2203 30.2654 23.4713C30.2654 23.9566 30.6503 24.3509 31.1251 24.3509C31.5998 24.3509 31.9847 23.9566 31.9847 23.4713C31.9847 22.9847 31.5998 22.5904 31.1251 22.5904Z" fill="#0061AE"/>
<path d="M30.2654 20.4137C30.2654 19.9271 30.6503 19.5328 31.1251 19.5328C31.5998 19.5328 31.9847 19.9271 31.9847 20.4137C31.9847 20.899 31.5998 21.2933 31.1251 21.2933C30.6503 21.2933 30.2654 20.899 30.2654 20.4137Z" fill="#0061AE"/>
<path d="M31.1251 16.4739C30.6503 16.4739 30.2654 16.8682 30.2654 17.3548C30.2654 17.8401 30.6503 18.2344 31.1251 18.2344C31.5998 18.2344 31.9847 17.8401 31.9847 17.3548C31.9847 16.8682 31.5998 16.4739 31.1251 16.4739Z" fill="#0061AE"/>
<path d="M30.2654 14.2972C30.2654 13.8106 30.6503 13.4163 31.1251 13.4163C31.5998 13.4163 31.9847 13.8106 31.9847 14.2972C31.9847 14.7825 31.5998 15.1768 31.1251 15.1768C30.6503 15.1768 30.2654 14.7825 30.2654 14.2972Z" fill="#0061AE"/>
<path d="M31.1251 10.3574C30.6503 10.3574 30.2654 10.7518 30.2654 11.2383C30.2654 11.7236 30.6503 12.118 31.1251 12.118C31.5998 12.118 31.9847 11.7236 31.9847 11.2383C31.9847 10.7518 31.5998 10.3574 31.1251 10.3574Z" fill="#0061AE"/>
<path d="M27.3594 41.8207C27.3594 41.3342 27.7443 40.9398 28.2191 40.9398C28.287 40.9398 28.3531 40.9475 28.4165 40.9629C28.4723 40.9769 28.5261 40.9961 28.5772 41.0192L28.5861 41.023L28.614 41.0384L28.6635 41.0666C28.9123 41.2215 29.0787 41.5006 29.0787 41.8207C29.0787 42.306 28.6938 42.7004 28.2191 42.7004L28.1329 42.6965L28.0968 42.6914L28.0646 42.6863L28.0238 42.6773L27.9325 42.6504C27.8618 42.6248 27.7952 42.5902 27.7343 42.5467L27.6982 42.5198C27.6592 42.4891 27.623 42.4558 27.5897 42.4199C27.4468 42.2625 27.3594 42.0512 27.3594 41.8207Z" fill="#0061AE"/>
<path d="M25.3131 40.9398C24.8383 40.9398 24.4534 41.3342 24.4534 41.8207C24.4534 42.306 24.8383 42.7004 25.3131 42.7004C25.7878 42.7004 26.1727 42.306 26.1727 41.8207C26.1727 41.3342 25.7878 40.9398 25.3131 40.9398Z" fill="#0061AE"/>
<path d="M21.5475 41.8207C21.5475 41.3342 21.9323 40.9398 22.4071 40.9398C22.8818 40.9398 23.2667 41.3342 23.2667 41.8207C23.2667 42.306 22.8818 42.7004 22.4071 42.7004C21.9323 42.7004 21.5475 42.306 21.5475 41.8207Z" fill="#0061AE"/>
<path d="M19.5011 40.9398C19.0263 40.9398 18.6415 41.3342 18.6415 41.8207C18.6415 42.306 19.0263 42.7004 19.5011 42.7004C19.9758 42.7004 20.3607 42.306 20.3607 41.8207C20.3607 41.3342 19.9758 40.9398 19.5011 40.9398Z" fill="#0061AE"/>
<path d="M15.7355 41.8207C15.7355 41.3342 16.1204 40.9398 16.5951 40.9398C17.0698 40.9398 17.4547 41.3342 17.4547 41.8207C17.4547 42.306 17.0698 42.7004 16.5951 42.7004C16.1204 42.7004 15.7355 42.306 15.7355 41.8207Z" fill="#0061AE"/>
<path d="M12.933 41.4007C12.9133 41.4379 12.896 41.4776 12.8815 41.5185C12.8478 41.6133 12.8295 41.7144 12.8295 41.8207C12.8295 42.306 13.2144 42.7004 13.6891 42.7004C14.1639 42.7004 14.5487 42.306 14.5487 41.8207C14.5487 41.3342 14.1639 40.9398 13.6891 40.9398C13.5809 40.9398 13.4772 40.9603 13.3818 40.9974C13.231 41.0563 13.1006 41.1588 13.0044 41.2881C12.978 41.3239 12.954 41.3611 12.933 41.4007Z" fill="#0061AE"/>
<path d="M9.92349 41.8207C9.92349 41.6543 9.96835 41.4993 10.0463 41.3675C10.1411 41.2061 10.2848 41.0781 10.4564 41.0051C10.5571 40.9629 10.6675 40.9398 10.7831 40.9398C11.2579 40.9398 11.6427 41.3342 11.6427 41.8207C11.6427 42.306 11.2579 42.7004 10.7831 42.7004C10.3084 42.7004 9.92349 42.306 9.92349 41.8207Z" fill="#0061AE"/>
</svg>
