<?xml version="1.0" encoding="UTF-8"?>
<svg version="1.1" xmlns="http://www.w3.org/2000/svg" xmlns:xlink="http://www.w3.org/1999/xlink">
<defs>
<linearGradient id="paint0_linear_2269_7201" x1="2" y1="2" x2="23" y2="23" gradientUnits="userSpaceOnUse"><stop stop-color="#fff"/><stop offset=".499" stop-color="#fff" stop-opacity=".76"/><stop offset="1" stop-color="#fff" stop-opacity=".86"/></linearGradient><linearGradient id="paint1_linear_2269_7201" x1="2" y1="2" x2="23" y2="23" gradientUnits="userSpaceOnUse"><stop stop-color="#fff"/><stop offset=".499" stop-color="#fff" stop-opacity=".76"/><stop offset="1" stop-color="#fff" stop-opacity=".86"/></linearGradient><linearGradient id="paint2_linear_2269_7201" x1="2" y1="2" x2="23" y2="23" gradientUnits="userSpaceOnUse"><stop stop-color="#fff"/><stop offset=".499" stop-color="#fff" stop-opacity=".76"/><stop offset="1" stop-color="#fff" stop-opacity=".86"/></linearGradient>
</defs>
<symbol id="i-attach" viewBox="0 0 24 25" xmlns="http://www.w3.org/2000/svg"><path d="M15.091 7.354v9.863a3.43 3.43 0 01-3.43 3.431 3.43 3.43 0 01-3.432-3.43V6.495a2.145 2.145 0 014.289 0v9.006a.86.86 0 01-.858.857.86.86 0 01-.857-.857V7.354H9.515v8.148a2.145 2.145 0 004.289 0V6.496a3.43 3.43 0 00-3.431-3.43 3.43 3.43 0 00-3.431 3.43v10.721a4.715 4.715 0 004.717 4.718 4.715 4.715 0 004.718-4.718V7.354H15.09z"/></symbol>
<symbol id="i-back" viewBox="0 0 7 12" xmlns="http://www.w3.org/2000/svg"><path d="M6 .5L1 6l5 5.5"/></symbol>
<symbol id="i-burger" viewBox="0 0 24 24" xmlns="http://www.w3.org/2000/svg"><path d="M5 7h14M5 12h14M5 17h14"/></symbol>
<symbol id="i-chat" viewBox="0 0 24 24" xmlns="http://www.w3.org/2000/svg"><path d="M18.47 16.83l.39 3.16c.1.83-.79 1.41-1.5.98l-4.19-2.49c-.46 0-.91-.03-1.35-.09A4.86 4.86 0 0013 15.23c0-2.84-2.46-5.14-5.5-5.14-1.16 0-2.23.33-3.12.91-.03-.25-.04-.5-.04-.76C4.34 5.69 8.29 2 13.17 2S22 5.69 22 10.24c0 2.7-1.39 5.09-3.53 6.59z"/><path d="M13 15.23c0 1.19-.44 2.29-1.18 3.16-.99 1.2-2.56 1.97-4.32 1.97l-2.61 1.55c-.44.27-1-.1-.94-.61l.25-1.97C2.86 18.4 2 16.91 2 15.23c0-1.76.94-3.31 2.38-4.23.89-.58 1.96-.91 3.12-.91 3.04 0 5.5 2.3 5.5 5.14z"/></symbol>
<symbol id="i-check-circle" viewBox="0 0 24 24" xmlns="http://www.w3.org/2000/svg"><path d="M12 22.75C6.07 22.75 1.25 17.93 1.25 12S6.07 1.25 12 1.25 22.75 6.07 22.75 12 17.93 22.75 12 22.75zm0-20C6.9 2.75 2.75 6.9 2.75 12S6.9 21.25 12 21.25s9.25-4.15 9.25-9.25S17.1 2.75 12 2.75z"/><path d="M10.58 15.58a.75.75 0 01-.53-.22l-2.83-2.83a.754.754 0 010-1.06c.29-.29.77-.29 1.06 0l2.3 2.3 5.14-5.14c.29-.29.77-.29 1.06 0 .29.29.29.77 0 1.06l-5.67 5.67a.75.75 0 01-.53.22z"/></symbol>
<symbol id="i-check-circle2" viewBox="0 0 30 30" xmlns="http://www.w3.org/2000/svg"><path d="M15 0C6.735 0 0 6.735 0 15s6.735 15 15 15 15-6.735 15-15S23.265 0 15 0zm7.17 11.55l-8.505 8.505a1.124 1.124 0 01-1.59 0L7.83 15.81a1.132 1.132 0 010-1.59 1.132 1.132 0 011.59 0l3.45 3.45 7.71-7.71a1.132 1.132 0 011.59 0c.435.435.435 1.14 0 1.59z"/></symbol>
<symbol id="i-check" viewBox="0 0 15 9" xmlns="http://www.w3.org/2000/svg"><path d="M1.5 4.5l4 3.5 8-7"/></symbol>
<symbol id="i-checked" viewBox="0 0 16 16" xmlns="http://www.w3.org/2000/svg"><path d="M3.2 7.6l3.2 2.8 6.4-5.6"/><rect x=".75" y=".75" width="14.5" height="14.5" rx="2.25"/></symbol>
<symbol id="i-close-circle" viewBox="0 0 18 18" xmlns="http://www.w3.org/2000/svg"><path d="M9 1.5C4.867 1.5 1.5 4.867 1.5 9s3.367 7.5 7.5 7.5 7.5-3.367 7.5-7.5S13.133 1.5 9 1.5zm2.52 9.225a.566.566 0 010 .795.556.556 0 01-.397.165.556.556 0 01-.398-.165L9 9.795 7.275 11.52a.556.556 0 01-.397.165.556.556 0 01-.398-.165.566.566 0 010-.795L8.205 9 6.48 7.275a.566.566 0 010-.795.566.566 0 01.795 0L9 8.205l1.725-1.725a.566.566 0 01.795 0 .566.566 0 010 .795L9.795 9l1.725 1.725z"/></symbol>
<symbol id="i-close" viewBox="0 0 18 18" xmlns="http://www.w3.org/2000/svg"><path d="M3.75 14.25l10.5-10.5m-10.5 0l10.5 10.5-10.5-10.5z"/></symbol>
<symbol id="i-dislike" viewBox="0 0 20 20" xmlns="http://www.w3.org/2000/svg"><path d="M13.767 4.708l-2.584-2c-.333-.333-1.083-.5-1.583-.5H6.433c-1 0-2.083.75-2.333 1.75l-2 6.083c-.417 1.167.333 2.167 1.583 2.167h3.334c.5 0 .916.417.833 1l-.417 2.667c-.166.75.334 1.583 1.084 1.833.666.25 1.5-.083 1.833-.583l3.417-5.084"/><path d="M18.016 4.708v8.167c0 1.167-.5 1.583-1.666 1.583h-.834c-1.166 0-1.666-.416-1.666-1.583V4.708c0-1.166.5-1.583 1.666-1.583h.834c1.166 0 1.666.417 1.666 1.583z"/></symbol>
<symbol id="i-doc" viewBox="0 0 18 24" xmlns="http://www.w3.org/2000/svg"><path d="M17.16 5.712L12.405.816A2.682 2.682 0 0010.492 0H3.731C1.679 0 0 1.728 0 3.84v16.32C0 22.272 1.679 24 3.73 24h10.54C16.32 24 18 22.272 18 20.16V7.68c-.047-.72-.326-1.44-.84-1.968zm-2.937 16.464H3.73c-1.073 0-1.912-.864-1.912-1.968V3.84c0-1.104.839-1.968 1.912-1.968h6.062c.513 0 .932.432.932.96v3.552c0 .528.42.96.933.96h3.544c.513 0 .933.432.933.96V20.16c.046 1.104-.84 2.016-1.912 2.016z"/></symbol>
<symbol id="i-down" viewBox="0 0 13 13" xmlns="http://www.w3.org/2000/svg"><path d="M2.167 4.333L6.5 8.667l4.333-4.334"/></symbol>
<symbol id="i-edit" viewBox="0 0 16 16" xmlns="http://www.w3.org/2000/svg"><path d="M7.333 2h-4C2.597 2 2 2.597 2 3.333v9.334C2 13.403 2.597 14 3.333 14h9.334c.736 0 1.333-.597 1.333-1.333v-4"/><path d="M6.332 7.666l5.333-5.333a1.414 1.414 0 112 2L8.332 9.666l-3 1 1-3z"/></symbol>
<symbol id="i-email" viewBox="0 0 14 12" xmlns="http://www.w3.org/2000/svg"><path d="M12.333 2.125H1.667c-.369 0-.667.28-.667.625v7.5c0 .345.298.625.667.625h10.666c.368 0 .667-.28.667-.625v-7.5c0-.345-.299-.625-.667-.625z"/><path d="M12.333 2.438L6.999 7.125 1.666 2.437"/></symbol>
<symbol id="i-email2" viewBox="0 0 24 16" xmlns="http://www.w3.org/2000/svg"><path d="M1.846 0a1.83 1.83 0 00-.98.288L11.134 9.5c.539.483 1.171.483 1.711 0L23.135.288A1.83 1.83 0 0022.154 0H1.846zM.106 1.25A1.84 1.84 0 000 1.846v12.308C0 15.177.823 16 1.846 16h20.308A1.842 1.842 0 0024 14.154V1.846c0-.21-.042-.408-.106-.596l-10.23 9.164a2.497 2.497 0 01-3.347 0L.106 1.25z"/></symbol>
<symbol id="i-like" viewBox="0 0 20 20" xmlns="http://www.w3.org/2000/svg"><path d="M6.232 15.292l2.584 2c.333.333 1.083.5 1.583.5h3.167c1 0 2.083-.75 2.333-1.75l2-6.083c.417-1.167-.333-2.167-1.583-2.167h-3.334c-.5 0-.916-.417-.833-1l.417-2.667c.166-.75-.334-1.583-1.084-1.833-.666-.25-1.5.083-1.833.583L6.232 7.96"/><path d="M1.982 15.292V7.125c0-1.166.5-1.583 1.667-1.583h.833c1.167 0 1.667.417 1.667 1.583v8.167c0 1.167-.5 1.583-1.667 1.583H3.65c-1.167 0-1.667-.416-1.667-1.583z"/></symbol>
<symbol id="i-loc" viewBox="0 0 9 9" xmlns="http://www.w3.org/2000/svg"><path d="M0 4.263L9 0 4.737 9l-.948-3.79L0 4.264z"/></symbol>
<symbol id="i-message-text" viewBox="0 0 24 24" xmlns="http://www.w3.org/2000/svg"><path d="M12 22.81c-.69 0-1.34-.35-1.8-.96l-1.5-2a.472.472 0 00-.2-.1H8c-4.17 0-6.75-1.13-6.75-6.75V8c0-4.42 2.33-6.75 6.75-6.75h8c4.42 0 6.75 2.33 6.75 6.75v5c0 4.42-2.33 6.75-6.75 6.75h-.5c-.08 0-.15.04-.2.1l-1.5 2c-.46.61-1.11.96-1.8.96zM8 2.75C4.42 2.75 2.75 4.42 2.75 8v5c0 4.52 1.55 5.25 5.25 5.25h.5c.51 0 1.09.29 1.4.7l1.5 2c.35.46.85.46 1.2 0l1.5-2c.33-.44.85-.7 1.4-.7h.5c3.58 0 5.25-1.67 5.25-5.25V8c0-3.58-1.67-5.25-5.25-5.25H8z"/><path d="M12 22.81c-.69 0-1.34-.35-1.8-.96l-1.5-2a.472.472 0 00-.2-.1H8c-4.17 0-6.75-1.13-6.75-6.75V8c0-4.42 2.33-6.75 6.75-6.75h8c4.42 0 6.75 2.33 6.75 6.75v5c0 4.42-2.33 6.75-6.75 6.75h-.5c-.08 0-.15.04-.2.1l-1.5 2c-.46.61-1.11.96-1.8.96zM8 2.75C4.42 2.75 2.75 4.42 2.75 8v5c0 4.52 1.55 5.25 5.25 5.25h.5c.51 0 1.09.29 1.4.7l1.5 2c.35.46.85.46 1.2 0l1.5-2c.33-.44.85-.7 1.4-.7h.5c3.58 0 5.25-1.67 5.25-5.25V8c0-3.58-1.67-5.25-5.25-5.25H8z"/><path d="M17 8.75H7c-.41 0-.75-.34-.75-.75s.34-.75.75-.75h10c.41 0 .75.34.75.75s-.34.75-.75.75z"/><path d="M17 8.75H7c-.41 0-.75-.34-.75-.75s.34-.75.75-.75h10c.41 0 .75.34.75.75s-.34.75-.75.75z"/><path d="M13 13.75H7c-.41 0-.75-.34-.75-.75s.34-.75.75-.75h6c.41 0 .75.34.75.75s-.34.75-.75.75z"/><path d="M13 13.75H7c-.41 0-.75-.34-.75-.75s.34-.75.75-.75h6c.41 0 .75.34.75.75s-.34.75-.75.75z"/></symbol>
<symbol id="i-next" viewBox="0 0 7 12" xmlns="http://www.w3.org/2000/svg"><path d="M1 .5L6 6l-5 5.5"/></symbol>
<symbol id="i-plus" viewBox="0 0 14 14" xmlns="http://www.w3.org/2000/svg"><path d="M7 2.916v8.167M2.917 6.999h8.166"/></symbol>
<symbol id="i-warning" viewBox="0 0 24 24" xmlns="http://www.w3.org/2000/svg"><path d="M19.51 5.85l-5.94-3.43c-.97-.56-2.17-.56-3.15 0L4.49 5.85a3.15 3.15 0 00-1.57 2.73v6.84c0 1.12.6 2.16 1.57 2.73l5.94 3.43c.97.56 2.17.56 3.15 0l5.94-3.43a3.15 3.15 0 001.57-2.73V8.58a3.192 3.192 0 00-1.58-2.73zm-8.26 1.9c0-.41.34-.75.75-.75s.75.34.75.75V13c0 .41-.34.75-.75.75s-.75-.34-.75-.75V7.75zm1.67 8.88c-.05.12-.12.23-.21.33a.99.99 0 01-1.09.21c-.13-.05-.23-.12-.33-.21-.09-.1-.16-.21-.22-.33a.986.986 0 01-.07-.38c0-.26.1-.52.29-.71.1-.09.2-.16.33-.21.37-.16.81-.07 1.09.21.09.1.16.2.21.33.05.12.08.25.08.38s-.03.26-.08.38z"/></symbol>
</svg>