<svg width="331" height="258" viewBox="0 0 331 258" fill="none" xmlns="http://www.w3.org/2000/svg">
<g clip-path="url(#clip0_1738_34072)">
<rect width="331" height="258" fill="white"/>
<rect x="517.961" y="71.876" width="622.731" height="16.5173" transform="rotate(135 517.961 71.876)" fill="#DCE8F3"/>
<rect x="499.229" y="53.1436" width="622.731" height="16.5173" transform="rotate(135 499.229 53.1436)" fill="#DCE8F3"/>
<rect x="480.496" y="34.4121" width="622.731" height="16.5173" transform="rotate(135 480.496 34.4121)" fill="#DCE8F3"/>
<rect x="461.764" y="15.6797" width="622.731" height="16.5173" transform="rotate(135 461.764 15.6797)" fill="#DCE8F3"/>
<rect x="443.033" y="-3.05176" width="622.731" height="16.5173" transform="rotate(135 443.033 -3.05176)" fill="#DCE8F3"/>
<rect x="424.301" y="-21.7842" width="622.731" height="16.5173" transform="rotate(135 424.301 -21.7842)" fill="#DCE8F3"/>
<rect x="405.568" y="-40.5166" width="622.731" height="16.5173" transform="rotate(135 405.568 -40.5166)" fill="#DCE8F3"/>
<rect x="386.836" y="-59.248" width="622.731" height="16.5173" transform="rotate(135 386.836 -59.248)" fill="#DCE8F3"/>
<rect x="368.105" y="-77.9805" width="622.731" height="16.5173" transform="rotate(135 368.105 -77.9805)" fill="#DCE8F3"/>
<rect x="349.373" y="-96.7119" width="622.731" height="16.5173" transform="rotate(135 349.373 -96.7119)" fill="#DCE8F3"/>
<rect x="330.641" y="-115.444" width="622.731" height="16.5173" transform="rotate(135 330.641 -115.444)" fill="#DCE8F3"/>
<rect x="311.908" y="-134.176" width="622.731" height="16.5173" transform="rotate(135 311.908 -134.176)" fill="#DCE8F3"/>
<rect x="293.176" y="-152.908" width="622.731" height="16.5173" transform="rotate(135 293.176 -152.908)" fill="#DCE8F3"/>
<rect x="274.445" y="-171.64" width="622.731" height="16.5173" transform="rotate(135 274.445 -171.64)" fill="#DCE8F3"/>
<rect x="255.713" y="-190.372" width="622.731" height="16.5173" transform="rotate(135 255.713 -190.372)" fill="#DCE8F3"/>
<rect x="236.98" y="-209.104" width="622.731" height="16.5173" transform="rotate(135 236.98 -209.104)" fill="#DCE8F3"/>
<rect x="218.248" y="-227.836" width="622.731" height="16.5173" transform="rotate(135 218.248 -227.836)" fill="#DCE8F3"/>
<rect y="15" width="316" height="228" fill="white"/>
</g>
<defs>
<clipPath id="clip0_1738_34072">
<rect width="331" height="258" fill="white"/>
</clipPath>
</defs>
</svg>
