<svg width="181" height="250" viewBox="0 0 181 250" fill="none" xmlns="http://www.w3.org/2000/svg">
<path d="M148.09 105.976C148.09 105.976 134.438 133.214 120.569 152.017C115.051 159.501 109.499 165.647 104.761 168.211C100.121 170.719 96.1947 174.616 92.9462 178.935C84.5309 190.118 80.6473 204.117 80.6473 204.117L45.1855 150.61C45.1855 150.61 46.3955 98.308 50.6533 89.5593C56.8594 76.81 59.8571 51.0499 62.2412 45.9213C64.0103 42.1167 69.0609 22.4645 69.5454 21.0205C69.7562 20.3985 71.4363 19.4434 73.6183 19.4463C75.3702 19.4463 78.3435 21.1349 79.0932 24.6035C82.8851 42.1396 78.3205 53.705 78.3721 54.2197C79.7097 67.6967 75.6884 77.7008 78.5083 80.3501C78.613 80.4488 78.8079 80.4016 79.0846 80.2257C83.9732 77.0945 114.316 32.9776 118.053 32.0254C121.998 31.0203 148.09 105.976 148.09 105.976Z" fill="#EFA26F"/>
<path d="M91.315 193.526C91.315 193.526 90.8319 217.303 89.4499 249.327H0C20.4461 205.842 38.2228 169.243 38.2228 169.243C38.2228 169.243 89.1546 170.794 91.315 193.526Z" fill="#F99746"/>
<path d="M179.096 13.7916L168.114 29.8479L157.338 45.6039C156.681 46.3946 155.92 46.6691 155.097 46.5905C152.511 46.346 149.311 42.6257 146.818 40.5669L146.566 40.3595C143.277 37.6473 142.814 32.7446 145.534 29.4676L162.004 9.61096V9.6081L166.89 3.72031C169.61 0.440423 174.526 -0.0213917 177.811 2.69088L178.064 2.89819C181.351 5.60904 181.815 10.5117 179.096 13.7916Z" fill="#FFB27D"/>
<path d="M168.113 29.8463L157.336 45.6024C156.68 46.393 155.919 46.6675 155.096 46.5889L162.001 9.60938C162.017 9.81669 163.191 26.4092 168.113 29.8463Z" fill="#EFA26F"/>
<path d="M120.57 152.017C115.052 159.501 109.499 165.647 104.761 168.211C100.122 170.719 96.1956 174.616 92.947 178.935C89.2096 177.198 84.9489 175.159 80.7843 173.141C75.7136 170.683 75.5187 163.501 80.4861 160.84C80.5349 160.815 80.5822 160.787 80.6295 160.762C85.2844 158.105 90.0526 148.727 90.0526 148.727L120.57 152.017Z" fill="#D38254"/>
<path d="M69.2973 21.8325L66.4243 33.4022C66.4243 33.4022 68.936 34.4273 70.5488 33.631C72.163 32.836 73.4791 22.4559 69.2973 21.8325Z" fill="#FFC197"/>
<path d="M151.928 157.485H90.1423C84.0652 157.485 79.092 152.526 79.092 146.464V11.0207C79.092 4.95987 84.0638 0 90.1423 0H151.928C158.005 0 162.978 4.95844 162.978 11.0207V146.464C162.977 152.525 158.005 157.485 151.928 157.485Z" fill="white"/>
<path d="M158.819 12.063V144.368C158.819 148.856 155.164 152.528 150.697 152.528H91.3697C86.904 152.528 83.2483 148.856 83.2483 144.368V12.063C83.2483 7.57496 86.9026 3.90332 91.3697 3.90332H150.697C155.164 3.90332 158.819 7.57496 158.819 12.063Z" fill="#C0D8FB"/>
<path d="M150.697 3.90332L92.1044 152.528H91.3704C86.9047 152.528 83.249 148.856 83.249 144.368V12.063C83.249 7.57496 86.9033 3.90332 91.3704 3.90332H150.697Z" fill="#CBE1FD"/>
<path d="M133.435 8.82323H108.639C106.619 8.82323 104.966 7.1747 104.966 5.16016V4.58396C104.966 2.56942 106.619 0.920898 108.639 0.920898H133.435C135.455 0.920898 137.108 2.56942 137.108 4.58396V5.16016C137.106 7.17613 135.455 8.82323 133.435 8.82323Z" fill="white"/>
<path d="M173.628 74.4236L171.991 75.0441L160.978 79.2176C160.72 79.3148 160.459 79.3992 160.198 79.4649C156.551 80.41 152.672 78.4712 151.304 74.8825L151.142 74.4607C149.677 70.6147 151.632 66.2725 155.489 64.8112L165.755 60.9208L166.5 60.6377L168.137 60.0172C171.994 58.556 176.346 60.5062 177.811 64.3523L177.973 64.7741C179.44 68.6187 177.485 72.9623 173.628 74.4236Z" fill="#FFB27D"/>
<path d="M164.686 74.6753C162.848 75.3701 159.521 76.6026 157.741 76.8571C157.238 76.93 156.311 76.6569 155.445 75.7104C154.926 75.1442 154.428 74.3378 154.06 73.2198C153.887 72.6936 153.743 72.1703 153.683 71.6299C153.614 70.9979 153.633 70.3645 153.743 69.7383C153.843 69.1735 154.231 68.6602 154.794 68.3886C154.795 68.3871 154.8 68.3871 154.803 68.3843C156.695 67.4835 159.245 66.3855 161.482 65.7721C163.027 65.346 164.591 66.0266 165.082 67.3763L165.312 68.0068L166.494 71.2352C166.983 72.5778 166.187 74.1105 164.686 74.6753Z" fill="#FFD3B6"/>
<path d="M164.685 74.6752C162.847 75.3701 159.52 76.6025 157.741 76.857C157.238 76.93 156.31 76.6569 155.444 75.7104C155.351 75.4959 155.266 75.2686 155.186 75.0255C155.013 74.4994 154.869 73.9761 154.809 73.4356C154.74 72.8037 154.759 72.1703 154.869 71.544C154.97 70.9793 155.357 70.466 155.92 70.1943C155.922 70.1929 155.926 70.1929 155.929 70.19C157.821 69.2893 160.372 68.1912 162.608 67.5779C163.599 67.3048 164.595 67.4849 165.312 68.0054L166.493 71.2338C166.982 72.5778 166.186 74.1105 164.685 74.6752Z" fill="#FFC197"/>
<path d="M168.631 89.8639L160.138 92.1701C157.558 92.8707 154.871 91.338 154.169 88.7644L153.906 87.805C153.204 85.2314 154.741 82.552 157.321 81.8515L165.814 79.5452C168.394 78.8446 171.081 80.3774 171.783 82.9509L172.046 83.9089C172.748 86.4853 171.211 89.1633 168.631 89.8639Z" fill="#FFB27D"/>
<path d="M164.039 89.4492C162.479 89.8653 159.659 90.5973 158.181 90.6774C157.644 90.7074 156.567 90.2542 155.865 88.8444C155.691 88.5027 155.545 88.1081 155.43 87.6506C155.327 87.2345 155.25 86.8227 155.241 86.4052C155.231 85.9134 155.294 85.4301 155.43 84.9554C155.554 84.5279 155.909 84.1591 156.391 83.9875C156.395 83.9861 156.397 83.9861 156.399 83.9832C158.018 83.4127 160.191 82.7322 162.072 82.4047C163.371 82.1774 164.602 82.8008 164.906 83.8688L165.126 84.6323L165.779 86.9228C166.081 87.9837 165.314 89.1118 164.039 89.4492Z" fill="#FFD3B6"/>
<path d="M164.039 89.4491C162.479 89.8652 159.659 90.5972 158.181 90.6773C157.643 90.7073 156.567 90.2541 155.864 88.8443C155.77 88.4568 155.701 88.0694 155.694 87.6762C155.684 87.1858 155.745 86.7011 155.883 86.2264C156.006 85.8003 156.362 85.43 156.843 85.2584C156.848 85.257 156.849 85.257 156.852 85.2542C158.471 84.6837 160.644 84.0031 162.525 83.6786C163.6 83.4898 164.631 83.8859 165.125 84.6322L165.779 86.9227C166.08 87.9836 165.313 89.1117 164.039 89.4491Z" fill="#FFC197"/>
<path d="M29.5137 187.282C29.5137 187.282 46.9937 203.979 58.7765 210.426L67.6978 204.115V213.426C67.6978 213.426 85.2437 216.52 90.7789 213.426V188.037L41.4972 163.398L29.5137 187.282Z" fill="#ED7D2B"/>
<path d="M45.1862 148.726C45.1862 148.726 34.0858 165.287 23.0542 182.995C23.0542 182.995 46.3044 198.946 58.9087 203.625L75.4425 184.74L73.0828 207.474C73.0828 207.474 87.7142 212.792 94.5037 211.404C94.5037 211.404 94.0751 190.781 94.0794 177.27C94.078 177.268 53.8552 166.025 45.1862 148.726Z" fill="#F3F8FF"/>
<path d="M173.36 58.1916C173.3 58.2131 173.24 58.2331 173.177 58.2546L162.043 61.1055C157.147 62.3608 152.085 59.7186 150.792 55.2349L150.13 52.9387C148.888 48.6351 151.558 44.1342 156.107 42.6744L159.782 41.7322L167.24 39.8234C172.136 38.5681 177.198 41.2103 178.49 45.694L179.152 47.9902C180.378 52.2352 177.797 56.6704 173.36 58.1916Z" fill="#FFB27D"/>
<path d="M168.258 55.0921L162.849 57.5227C162.84 57.5241 162.83 57.527 162.814 57.5313C162.596 57.5899 162.377 57.6342 162.16 57.6657C162.07 57.68 161.977 57.69 161.887 57.7C161.848 57.7043 161.811 57.7043 161.772 57.7014C161.176 57.6814 160.767 57.0509 161.025 56.489C161.537 55.3795 161.676 54.0941 161.33 52.8316L161.201 52.3612C161.201 52.3569 161.2 52.3512 161.197 52.3469L160.778 50.8157C160.446 49.5946 159.739 48.5738 158.817 47.8346C158.707 47.7445 158.592 47.6602 158.475 47.5801C157.405 46.8409 157.678 45.1695 158.929 44.8221C158.941 44.8178 158.951 44.8164 158.963 44.8121L164.9 43.917C166.368 43.5196 167.78 44.6462 168.182 46.1089L168.659 47.8532L169.674 51.5734C170.074 53.0389 169.726 54.6946 168.258 55.0921Z" fill="#FFD3B6"/>
<path d="M168.258 55.092L162.849 57.5226C162.84 57.524 162.83 57.5269 162.815 57.5312C162.688 57.5555 162.291 57.6213 161.772 57.7013C161.176 57.6813 160.767 57.0508 161.025 56.4889C161.537 55.3794 161.676 54.094 161.331 52.8315L161.202 52.3611C161.202 52.3569 161.2 52.3511 161.197 52.3468L160.779 50.8156C160.446 49.5945 159.739 48.5737 158.818 47.8345C159.008 47.5557 159.295 47.3341 159.669 47.2297C159.679 47.2254 159.691 47.224 159.704 47.2197L165.64 46.3247C166.876 45.9901 168.072 46.7364 168.659 47.8531L169.674 51.5733C170.074 53.0389 169.726 54.6945 168.258 55.092Z" fill="#FFC197"/>
<path d="M79.0921 115.947C79.0921 115.947 76.6636 94.8008 74.4229 90.6788C72.1821 86.5539 70.2855 78.297 73.7333 72.1618C77.1811 66.0239 78.3725 54.2183 78.3725 54.2183C79.71 67.6953 75.6887 77.6993 78.5086 80.3487C78.6133 80.4474 78.8083 80.4002 79.085 80.2243L79.0921 115.947Z" fill="#D38254"/>
<rect x="87.1116" y="33.7986" width="60.8524" height="2.82277" rx="1.41138" fill="white"/>
<rect x="87.1116" y="97.3105" width="48.4697" height="2.82277" rx="1.41138" fill="white"/>
<rect x="117.537" y="55.322" width="27.2421" height="33.5203" rx="6" fill="#DCE8F3"/>
<rect x="87.1116" y="55.322" width="27.2421" height="33.5203" rx="6" fill="#DCE8F3"/>
<rect x="87.1116" y="39.4438" width="48.4697" height="2.82277" rx="1.41138" fill="white"/>
<rect x="87.1116" y="102.956" width="48.4697" height="2.82277" rx="1.41138" fill="white"/>
<rect x="87.1116" y="114.247" width="48.4697" height="14.1138" rx="6" fill="#0061AE"/>
<rect x="87.1116" y="45.0896" width="48.4697" height="2.82277" rx="1.41138" fill="white"/>
<path d="M115.06 120.981V121.306C115.06 122.067 114.813 122.807 114.356 123.417C113.899 124.026 113.257 124.472 112.525 124.688C111.794 124.903 111.012 124.878 110.296 124.614C109.581 124.35 108.97 123.863 108.554 123.225C108.139 122.586 107.942 121.831 107.992 121.072C108.042 120.313 108.337 119.59 108.833 119.012C109.329 118.433 109.998 118.03 110.743 117.862C111.487 117.695 112.265 117.771 112.962 118.081M115.06 118.483L111.522 122.015L110.461 120.957" stroke="white" stroke-width="0.5" stroke-linecap="round" stroke-linejoin="round"/>
</svg>
