<svg width="304" height="177" viewBox="0 0 304 177" fill="none" xmlns="http://www.w3.org/2000/svg">
<path d="M304 85.0475V139.051C304 149.544 295.493 158.051 285 158.051L190 158.051C179.507 158.051 171 149.544 171 139.051L171 104.047C171 93.5541 179.507 85.0475 190 85.0475L304 85.0475Z" fill="#E4F0F5"/>
<path d="M256 75.047L61 75.047C50.5066 75.047 42 66.5404 42 56.047V19.0436C42 8.55014 50.5066 0.0435473 61 0.0435473L237 0.0435473C247.493 0.0435473 256 8.55014 256 19.0435V75.047Z" fill="#E4F0F5"/>
<path d="M3.55859 173.697V143.744H136.955V173.697H3.55859Z" fill="#0061AE" stroke="#0F1830" stroke-width="1.5"/>
<path d="M139.331 159.295V169.871H0.854684C0.797068 169.871 0.75 169.825 0.75 169.766V159.295H139.331Z" fill="#0061AE" stroke="#0F1830" stroke-width="1.5"/>
<path d="M139.331 145.894H0.75V142.989C0.75 142.92 0.805919 142.865 0.873481 142.865H139.196C139.271 142.865 139.331 142.925 139.331 143V145.894Z" fill="#0F1830" stroke="#0F1830" stroke-width="1.5"/>
<path d="M262.873 157.758C266.948 159.74 268.534 165.304 266.103 170.306C263.672 175.307 258.319 177.495 254.244 175.513C250.169 173.531 248.584 167.967 251.015 162.965C253.446 157.964 258.799 155.776 262.873 157.758Z" fill="#0061AE" stroke="#0F1830" stroke-width="1.5"/>
<path d="M255.156 159.139L250.559 168.597L244.847 165.818L249.444 156.36L255.156 159.139Z" fill="#0061AE" stroke="#0F1830" stroke-width="1.5"/>
<path d="M115.895 105.212L115.895 105.212C114.303 104.326 113.08 103.443 112.417 102.477C112.096 102.008 111.917 101.534 111.882 101.032C111.847 100.53 111.954 99.9501 112.286 99.2668C112.286 99.2668 112.286 99.2667 112.286 99.2667L115.629 92.3896L115.629 92.3895C115.936 91.7578 116.316 91.4297 116.727 91.2589C117.158 91.0797 117.703 91.0403 118.383 91.1403C119.607 91.3205 121.014 91.9047 122.518 92.5297C122.727 92.6166 122.939 92.7044 123.152 92.7919L123.152 92.792C135.326 97.7959 147.636 102.632 159.599 107.333C172.891 112.555 185.755 117.609 197.527 122.537C219.886 131.898 238.02 140.694 247.242 149.089L247.747 148.535L247.242 149.089C248.848 150.551 249.548 152.665 249.16 154.658C248.352 158.806 246.512 162.513 243.701 165.822C242.328 167.438 240.106 168.183 237.863 167.733C226.088 165.368 207.759 156.518 186.226 144.824C173.995 138.181 160.783 130.651 147.201 122.91C136.89 117.034 126.366 111.036 115.895 105.212Z" fill="#0061AE" stroke="#0F1830" stroke-width="1.5"/>
<path d="M122.017 84.7848L110.745 107.975L104.915 105.139L116.187 81.948L122.017 84.7848ZM110.823 108.014L110.823 108.013L110.823 108.014ZM122.054 84.7078C122.054 84.7077 122.055 84.7075 122.055 84.7074L122.055 84.7075L122.054 84.7078ZM104.877 105.216L104.877 105.216L104.877 105.216ZM116.108 81.91L116.109 81.9101L116.108 81.91Z" fill="#0061AE" stroke="#0F1830" stroke-width="1.5"/>
<path d="M71.5775 61.4772L60.3056 84.6679L54.4751 81.831L65.7471 58.6404L71.5775 61.4772ZM60.3837 84.7059L60.3835 84.7058L60.3837 84.7059ZM71.6152 61.3997L71.6151 61.3999L71.6152 61.3997ZM54.4375 81.9085L54.4376 81.9083L54.4375 81.9085ZM65.669 58.6024L65.6691 58.6024L65.669 58.6024Z" fill="#0061AE" stroke="#0F1830" stroke-width="1.5"/>
<path d="M78.1007 38.9331L126.706 62.5797L91.506 135.001L42.8994 111.354L78.1007 38.9331Z" fill="#0061AE" stroke="#0F1830" stroke-width="1.5"/>
<path d="M44.134 108.811L92.7405 132.458L88.8873 140.386L40.2808 116.739L44.134 108.811Z" fill="#0061AE" stroke="#0F1830" stroke-width="1.5"/>
<path d="M85.451 142.761L85.4508 142.761C69.9575 138.157 54.9589 130.984 40.5227 120.877C39.5551 120.198 39.2224 118.915 39.7388 117.853L39.7389 117.853L41.661 113.897L90.2685 137.545L88.3552 141.481C87.8299 142.561 86.601 143.103 85.451 142.761Z" fill="#0061AE" stroke="#0F1830" stroke-width="1.5"/>
<path d="M95.6144 129.977L93.7976 133.714L41.6012 108.32L43.4182 104.582L95.6144 129.977ZM93.8517 133.741L93.8512 133.74L93.8517 133.741Z" fill="#0061AE" stroke="#0F1830" stroke-width="1.5"/>
<path d="M43.0906 105.248L95.287 130.642L94.1245 133.034L41.9281 107.64L43.0906 105.248Z" fill="#0061AE" stroke="#0F1830" stroke-width="1.5"/>
<path d="M131.508 52.7046L127.653 60.6331L79.0479 36.9864L82.9011 29.058L131.508 52.7046Z" fill="#0061AE" stroke="#0F1830" stroke-width="1.5"/>
<path d="M132.039 51.6082L130.126 55.544L81.5205 31.8973L83.4429 27.9411L83.4429 27.941C83.9597 26.8776 85.1736 26.3475 86.3031 26.6904L86.3031 26.6905C103.163 31.8091 118.065 39.1819 131.252 48.5324L131.252 48.5325C132.231 49.2262 132.564 50.5287 132.039 51.608L132.039 51.6082Z" fill="#0061AE" stroke="#0F1830" stroke-width="1.5"/>
<path d="M129.289 60.6921L127.472 64.4301L75.2767 39.0362L77.0937 35.2982L129.289 60.6921Z" fill="#0061AE" stroke="#0F1830" stroke-width="1.5"/>
<path d="M128.961 61.362L127.799 63.7544L75.6032 38.3611L76.7657 35.9693L128.961 61.362Z" fill="#0061AE" stroke="#0F1830" stroke-width="1.5"/>
</svg>
