<svg width="294" height="215" viewBox="0 0 294 215" fill="none" xmlns="http://www.w3.org/2000/svg">
<path d="M76.6953 125.019C76.6953 110.66 88.3359 99.019 102.695 99.019H198.903C213.262 99.019 224.903 110.66 224.903 125.019V214.024H102.695C88.3359 214.024 76.6953 202.384 76.6953 188.024V125.019Z" fill="#E4F0F5"/>
<path d="M224.903 66.0191C224.903 58.8394 230.723 53.019 237.903 53.019H281C288.18 53.019 294 58.8393 294 66.019V107.022H237.903C230.723 107.022 224.903 101.201 224.903 94.0215V66.0191Z" fill="#E4F0F5"/>
<path d="M120.18 0.0161142L8 0.0161133C5.19974 0.0161133 3.79961 0.0161133 2.73005 0.561081C1.78924 1.04045 1.02433 1.80535 0.544967 2.74616C-3.05068e-08 3.81572 -4.17483e-08 5.21585 -6.42313e-08 8.0161L-1.27666e-06 159.024C-1.29914e-06 161.824 -1.31039e-06 163.224 0.544966 164.294C1.02433 165.235 1.78924 165.999 2.73005 166.479C3.7996 167.024 5.19974 167.024 8 167.024L120.18 167.024C122.98 167.024 124.38 167.024 125.45 166.479C126.39 165.999 127.155 165.235 127.635 164.294C128.18 163.224 128.18 161.824 128.18 159.024L128.18 8.01611C128.18 5.21585 128.18 3.81572 127.635 2.74616C127.155 1.80535 126.39 1.04045 125.45 0.561082C124.38 0.0161143 122.98 0.0161143 120.18 0.0161142Z" fill="#0F1830"/>
<path d="M120.974 4.01611L7.20543 4.01611C6.08533 4.01611 5.52527 4.01611 5.09745 4.2341C4.72113 4.42585 4.41517 4.73181 4.22342 5.10813C4.00543 5.53596 4.00543 6.09601 4.00543 7.21611L4.00543 159.823C4.00543 160.944 4.00543 161.504 4.22342 161.931C4.41516 162.308 4.72113 162.614 5.09745 162.805C5.52527 163.023 6.08532 163.023 7.20543 163.023L120.974 163.023C122.094 163.023 122.654 163.023 123.082 162.805C123.458 162.614 123.764 162.308 123.956 161.931C124.174 161.504 124.174 160.944 124.174 159.823L124.174 7.21611C124.174 6.09601 124.174 5.53596 123.956 5.10813C123.764 4.73181 123.458 4.42585 123.082 4.2341C122.654 4.01611 122.094 4.01611 120.974 4.01611Z" fill="white"/>
<path opacity="0.21" d="M68.0979 74.7388L13.0151 74.7388C11.9106 74.7388 11.0151 75.6342 11.0151 76.7388L11.0151 78.7388C11.0151 79.8433 11.9106 80.7388 13.0151 80.7388L68.0979 80.7388C69.2025 80.7388 70.0979 79.8433 70.0979 78.7388L70.0979 76.7388C70.0979 75.6342 69.2025 74.7388 68.0979 74.7388Z" fill="#AEAEAE"/>
<path opacity="0.21" d="M102.146 87.7394L13.0151 87.7394C11.9106 87.7394 11.0151 88.6348 11.0151 89.7394L11.0151 91.7394C11.0151 92.8439 11.9106 93.7394 13.0151 93.7394L102.146 93.7394C103.25 93.7394 104.146 92.8439 104.146 91.7394L104.146 89.7394C104.146 88.6348 103.25 87.7394 102.146 87.7394Z" fill="#AEAEAE"/>
<path opacity="0.21" d="M68.0984 116.743L13.0156 116.743C11.9111 116.743 11.0156 117.638 11.0156 118.743L11.0156 120.743C11.0156 121.847 11.9111 122.743 13.0156 122.743L68.0984 122.743C69.203 122.743 70.0984 121.847 70.0984 120.743L70.0984 118.743C70.0984 117.638 69.203 116.743 68.0984 116.743Z" fill="#AEAEAE"/>
<path opacity="0.21" d="M102.146 129.743L13.0156 129.743C11.9111 129.743 11.0156 130.638 11.0156 131.743L11.0156 133.743C11.0156 134.847 11.9111 135.743 13.0156 135.743L102.146 135.743C103.251 135.743 104.146 134.847 104.146 133.743L104.146 131.743C104.146 130.638 103.251 129.743 102.146 129.743Z" fill="#AEAEAE"/>
<path d="M160.808 72.8219L156.167 63.1797L71.8364 103.656L76.4769 113.298L160.808 72.8219Z" fill="#0061AE"/>
<path d="M71.8284 103.657L60.5703 115.255L76.4721 113.297L71.8284 103.657Z" fill="#0F1830"/>
<path opacity="0.21" d="M68.0984 31.7349L13.0156 31.7349C11.9111 31.7349 11.0156 32.6303 11.0156 33.7349L11.0156 36.7349C11.0156 37.8394 11.9111 38.7349 13.0156 38.7349L68.0984 38.7349C69.203 38.7349 70.0984 37.8394 70.0984 36.7349L70.0984 33.7349C70.0984 32.6303 69.203 31.7349 68.0984 31.7349Z" fill="#AEAEAE"/>
<path opacity="0.21" d="M102.146 44.7388L13.0156 44.7388C11.9111 44.7388 11.0156 45.6342 11.0156 46.7388L11.0156 49.7388C11.0156 50.8433 11.9111 51.7388 13.0156 51.7388L102.146 51.7388C103.251 51.7388 104.146 50.8433 104.146 49.7388L104.146 46.7388C104.146 45.6342 103.251 44.7388 102.146 44.7388Z" fill="#AEAEAE"/>
<path d="M60.8906 147.138C76.8899 143.092 92.9765 138.776 108.23 132.39C109.714 131.769 111.246 131.142 112.485 130.119C112.927 129.754 111.305 130.076 110.774 130.29C107.52 131.597 105.099 133.213 102.606 135.662C100.131 138.095 99.2345 140.912 97.4225 143.671C96.9626 144.372 96.3167 144.14 95.8576 144.599C95.3952 145.061 97.5929 146.246 97.7648 146.308C99.5356 146.947 101.754 146.17 103.389 145.478C105.976 144.383 102.482 145.923 101.677 146.943C101.081 147.699 103.997 146.326 104.367 146.259C104.942 146.155 114.444 144.673 113.17 142.939C112.643 142.221 109.08 145.157 110.871 144.404C111.948 143.951 112.641 144.075 113.708 144.501" stroke="#0F1830" stroke-linecap="round"/>
</svg>
