<svg width="33" height="33" viewBox="0 0 33 33" fill="none" xmlns="http://www.w3.org/2000/svg">
<g clip-path="url(#clip0_2239_7243)">
<rect x="7.37653" y="2.42114" width="18.17" height="28.081" fill="#DCE8F3"/>
<path d="M23.3271 0.769287H21.6925H11.231H9.59634C7.61257 0.769287 6.00018 2.38167 6.00018 4.36544V28.5577C6.00018 30.5415 7.61257 32.1539 9.59634 32.1539H23.3271C25.3109 32.1539 26.9233 30.5415 26.9233 28.5577V4.36544C26.9233 2.38167 25.3109 0.769287 23.3271 0.769287ZM24.3079 28.2308C24.3079 28.9527 23.722 29.5385 23.0002 29.5385H9.92326C9.20141 29.5385 8.61557 28.9527 8.61557 28.2308V4.69236C8.61557 3.97052 9.20141 3.38467 9.92326 3.38467H10.5771C11.299 3.38467 11.8848 3.97052 11.8848 4.69236C11.8848 5.41421 12.4706 6.00006 13.1925 6.00006H19.731C20.4528 6.00006 21.0386 5.41421 21.0386 4.69236C21.0386 3.97052 21.6245 3.38467 22.3463 3.38467H23.0002C23.722 3.38467 24.3079 3.97052 24.3079 4.69236V28.2308Z" fill="#0061AE"/>
</g>
<defs>
<clipPath id="clip0_2239_7243">
<rect width="31.3846" height="31.3846" fill="white" transform="translate(0.769226 0.769287)"/>
</clipPath>
</defs>
</svg>
