<svg width="25" height="27" viewBox="0 0 25 27" fill="none" xmlns="http://www.w3.org/2000/svg">
<path d="M11.4607 5.77741C11.4607 6.15859 11.7686 6.46737 12.1483 6.46737C12.5281 6.46737 12.836 6.15859 12.836 5.77741C12.836 5.39666 12.5281 5.08766 12.1483 5.08766C11.7686 5.08766 11.4607 5.39666 11.4607 5.77741Z" fill="#AEAEAE"/>
<path fill-rule="evenodd" clip-rule="evenodd" d="M0 22.2683C0 22.2683 0 25.2979 3.37704 25.2979H8.66601C9.81658 25.2979 12.256 26.9941 12.256 26.9941C12.256 26.9941 14.4838 25.2979 15.6343 25.2979H20.9233C24.3003 25.2979 24.3003 22.2683 24.3003 22.2683V0.00195312H0V22.2683ZM3.05469 7.42705L12.1483 3.78311L21.242 7.42705H3.05469ZM21.1237 9.04811H3.17523V8.12474H21.1237V9.04811ZM3.09931 19.0157H21.0478V18.0921H20.0996V10.5783H20.5471V9.6212H18.6132V10.5783H19.0614V18.0921H17.0969V10.5783H17.5445V9.6212H15.6104V10.5783H16.0586V18.0921H14.0941V10.5783H14.5418V9.6212H12.6077V10.5783H13.0559V18.0921H11.0907V10.5783H11.539V9.6212H9.60493V10.5783H10.0524V18.0921H8.08797V10.5783H8.5363V9.6212H6.60218V10.5783H7.0497V18.0921H5.08522V10.5783H5.53355V9.6212H3.59943V10.5783H4.04695V18.0921H3.09931V19.0157ZM2.16565 20.5844H22.1344V19.6611H2.16565V20.5844Z" fill="#AEAEAE"/>
<path d="M11.4607 5.77741C11.4607 6.15859 11.7686 6.46737 12.1483 6.46737C12.5281 6.46737 12.836 6.15859 12.836 5.77741C12.836 5.39666 12.5281 5.08766 12.1483 5.08766C11.7686 5.08766 11.4607 5.39666 11.4607 5.77741Z" fill="#AEAEAE"/>
<path fill-rule="evenodd" clip-rule="evenodd" d="M0 22.2683C0 22.2683 0 25.2979 3.37704 25.2979H8.66601C9.81658 25.2979 12.256 26.9941 12.256 26.9941C12.256 26.9941 14.4838 25.2979 15.6343 25.2979H20.9233C24.3003 25.2979 24.3003 22.2683 24.3003 22.2683V0.00195312H0V22.2683ZM3.05469 7.42705L12.1483 3.78311L21.242 7.42705H3.05469ZM21.1237 9.04811H3.17523V8.12474H21.1237V9.04811ZM3.09931 19.0157H21.0478V18.0921H20.0996V10.5783H20.5471V9.6212H18.6132V10.5783H19.0614V18.0921H17.0969V10.5783H17.5445V9.6212H15.6104V10.5783H16.0586V18.0921H14.0941V10.5783H14.5418V9.6212H12.6077V10.5783H13.0559V18.0921H11.0907V10.5783H11.539V9.6212H9.60493V10.5783H10.0524V18.0921H8.08797V10.5783H8.5363V9.6212H6.60218V10.5783H7.0497V18.0921H5.08522V10.5783H5.53355V9.6212H3.59943V10.5783H4.04695V18.0921H3.09931V19.0157ZM2.16565 20.5844H22.1344V19.6611H2.16565V20.5844Z" fill="#AEAEAE"/>
</svg>
