<svg width="17" height="17" viewBox="0 0 17 17" fill="none" xmlns="http://www.w3.org/2000/svg">
<path d="M8.49935 15.5846C12.4114 15.5846 15.5827 12.4133 15.5827 8.5013C15.5827 4.58928 12.4114 1.41797 8.49935 1.41797C4.58733 1.41797 1.41602 4.58928 1.41602 8.5013C1.41602 12.4133 4.58733 15.5846 8.49935 15.5846Z" stroke="#C0CDDA" stroke-width="1.25" stroke-linecap="round" stroke-linejoin="round"/>
<path d="M6.43945 6.37687C6.60599 5.90347 6.93469 5.50428 7.36734 5.25C7.79999 4.99573 8.30867 4.90278 8.80329 4.98762C9.2979 5.07246 9.74653 5.32961 10.0697 5.71353C10.3929 6.09745 10.5698 6.58336 10.569 7.0852C10.569 8.50187 8.44404 9.2102 8.44404 9.2102" stroke="#C0CDDA" stroke-width="1.25" stroke-linecap="round" stroke-linejoin="round"/>
<path d="M8.5 12.043H8.50833" stroke="#C0CDDA" stroke-width="1.25" stroke-linecap="round" stroke-linejoin="round"/>
</svg>
