<svg width="28" height="28" viewBox="0 0 28 28" fill="none" xmlns="http://www.w3.org/2000/svg">
<path d="M20.905 16.7041C20.6029 16.9969 20.464 17.4204 20.5329 17.8357L21.57 23.5757C21.6575 24.0622 21.4522 24.5546 21.045 24.8357C20.646 25.1274 20.1152 25.1624 19.68 24.9291L14.5129 22.2341C14.3332 22.1384 14.1337 22.0871 13.9295 22.0812H13.6134C13.5037 22.0976 13.3964 22.1326 13.2984 22.1862L8.13003 24.8941C7.87453 25.0224 7.5852 25.0679 7.3017 25.0224C6.61103 24.8917 6.1502 24.2337 6.26336 23.5396L7.3017 17.7996C7.37053 17.3807 7.2317 16.9549 6.92953 16.6574L2.7167 12.5741C2.36436 12.2322 2.24186 11.7189 2.40286 11.2557C2.5592 10.7937 2.9582 10.4566 3.44003 10.3807L9.23836 9.53956C9.67936 9.49406 10.0667 9.22573 10.265 8.82906L12.82 3.59073C12.8807 3.47406 12.9589 3.36673 13.0534 3.27573L13.1584 3.19406C13.2132 3.1334 13.2762 3.08323 13.3462 3.0424L13.4734 2.99573L13.6717 2.91406H14.1629C14.6015 2.95956 14.9877 3.22206 15.1895 3.61406L17.7784 8.82906C17.965 9.21056 18.3279 9.47539 18.7467 9.53956L24.545 10.3807C25.035 10.4507 25.4445 10.7891 25.6067 11.2557C25.7595 11.7236 25.6277 12.2369 25.2684 12.5741L20.905 16.7041Z" fill="#FFA44B"/>
</svg>
