<svg width="60" height="60" viewBox="0 0 60 60" fill="none" xmlns="http://www.w3.org/2000/svg">
<g clip-path="url(#clip0_1772_37131)">
<path d="M4.76367 13.8182V36.8727H18.2182L30.0364 16.4H56.8C51.8182 6.65454 41.7091 0 30.0364 0C19.4182 0 10.1091 5.49091 4.76367 13.8182Z" fill="#DB4437"/>
<path d="M4.76367 13.8182V36.8727H18.2182L30.0364 16.4H56.8C51.8182 6.65454 41.7091 0 30.0364 0C19.4182 0 10.1091 5.49091 4.76367 13.8182Z" fill="url(#paint0_linear_1772_37131)"/>
<path d="M4.76367 13.8182L18.2546 36.9091L18.5455 36.7273L4.98185 13.4546C4.90913 13.6 4.8364 13.7091 4.76367 13.8182Z" fill="#3E2723" fill-opacity="0.15"/>
<path d="M28.6182 60.0365L41.8545 46.8002V36.8729H18.2182L4.76364 13.8184C1.74545 18.4729 0 24.0729 0 30.0365C0 46.1456 12.6909 59.3093 28.6182 60.0365Z" fill="#0F9D58"/>
<path d="M28.6182 60.0365L41.8545 46.8002V36.8729H18.2182L4.76364 13.8184C1.74545 18.4729 0 24.0729 0 30.0365C0 46.1456 12.6909 59.3093 28.6182 60.0365Z" fill="url(#paint1_linear_1772_37131)"/>
<path d="M28.2544 60.0368C28.3635 60.0368 28.5089 60.0368 28.618 60.0731L41.5999 37.3459L41.3089 37.1641L28.2544 60.0368Z" fill="#263238" fill-opacity="0.15"/>
<path d="M28.6182 60.0362L41.8545 46.7998V36.8726L28.6182 60.0362Z" fill="#FFCD40"/>
<path d="M28.6182 60.0362L41.8545 46.7998V36.8726L28.6182 60.0362Z" fill="url(#paint2_linear_1772_37131)"/>
<path d="M30.0363 16.4004L41.8545 36.8731L28.6182 60.0368C29.0909 60.0731 29.5636 60.0731 30.0363 60.0731C46.6182 60.0731 60.0727 46.6186 60.0727 30.0368C60.0727 25.1277 58.8727 20.4731 56.8 16.4004H30.0363Z" fill="#FFCD40"/>
<path d="M30.0363 16.4004L41.8545 36.8731L28.6182 60.0368C29.0909 60.0731 29.5636 60.0731 30.0363 60.0731C46.6182 60.0731 60.0727 46.6186 60.0727 30.0368C60.0727 25.1277 58.8727 20.4731 56.8 16.4004H30.0363Z" fill="url(#paint3_linear_1772_37131)"/>
<path d="M56.7998 16.4004H30.0361V23.5277L56.7998 16.4004Z" fill="url(#paint4_radial_1772_37131)"/>
<path d="M4.76367 13.8184L18.2182 36.8729L24.3273 33.3456L4.76367 13.8184Z" fill="url(#paint5_radial_1772_37131)"/>
<path d="M41.8545 36.8735L35.7818 33.3462L28.6182 60.0371L41.8545 36.8735Z" fill="url(#paint6_radial_1772_37131)"/>
<path d="M30.0363 43.6731C37.5674 43.6731 43.6726 37.5679 43.6726 30.0368C43.6726 22.5056 37.5674 16.4004 30.0363 16.4004C22.5051 16.4004 16.3999 22.5056 16.3999 30.0368C16.3999 37.5679 22.5051 43.6731 30.0363 43.6731Z" fill="#F1F1F1"/>
<path d="M30.036 40.9456C36.061 40.9456 40.9451 36.0615 40.9451 30.0365C40.9451 24.0116 36.061 19.1274 30.036 19.1274C24.0111 19.1274 19.127 24.0116 19.127 30.0365C19.127 36.0615 24.0111 40.9456 30.036 40.9456Z" fill="#4285F4"/>
<path d="M56.6186 16.0366H30.0368C22.5095 16.0366 16.4004 22.1457 16.4004 29.673V30.0003C16.4004 22.473 22.5095 16.3639 30.0368 16.3639H56.764C56.7277 16.2548 56.6913 16.1457 56.6186 16.0366Z" fill="#3E2723" fill-opacity="0.2"/>
<path d="M30.2548 43.6729H30.0366C24.9821 43.6729 20.5821 40.9093 18.2184 36.8365L4.76388 13.8184C4.72751 13.8547 4.69115 13.9275 4.65479 13.9638L18.2184 37.2002C20.5821 41.2729 24.9821 44.0365 30.0366 44.0365C33.8184 44.0365 37.273 42.4729 39.7457 39.9638C37.3093 42.2547 34.0002 43.6729 30.4002 43.6729C30.3275 43.7093 30.2911 43.6729 30.2548 43.6729Z" fill="white" fill-opacity="0.1"/>
<path d="M34.8003 42.8369C34.873 42.8005 34.9457 42.7642 35.0185 42.7642C34.9457 42.7642 34.873 42.8005 34.8003 42.8369Z" fill="white" fill-opacity="0.1"/>
<path d="M35.4912 42.5463C35.7094 42.4736 35.8912 42.3645 36.1094 42.2554C35.8912 42.3645 35.7094 42.4736 35.4912 42.5463Z" fill="white" fill-opacity="0.1"/>
<path d="M34.1455 43.0544C34.1819 43.0544 34.2182 43.0181 34.2546 43.0181C34.2182 43.0181 34.1819 43.0544 34.1455 43.0544Z" fill="white" fill-opacity="0.1"/>
<path d="M36.3638 42.1459C36.5456 42.0732 36.691 41.9641 36.8729 41.855C36.691 41.9641 36.5092 42.0368 36.3638 42.1459Z" fill="white" fill-opacity="0.1"/>
<path opacity="0.1" d="M43.6367 31.1274V30.9092C43.6731 30.9455 43.6731 31.0183 43.6367 31.1274Z" fill="#3E2723"/>
<path opacity="0.1" d="M39.7456 39.9632L40.6183 39.0905L40.7638 38.8359C40.4365 39.2359 40.1092 39.5996 39.7456 39.9632Z" fill="#3E2723"/>
<path opacity="0.1" d="M43.3097 26.764C43.6369 27.964 43.8187 29.2004 43.8187 30.5095C43.8187 32.5822 43.346 34.5095 42.5097 36.2913C43.4551 34.4368 44.0369 32.2913 44.0369 30.0368C44.0369 22.5095 37.9278 16.4004 30.4006 16.4004H30.2188C36.546 16.4731 41.8551 20.8731 43.3097 26.764Z" fill="#3E2723"/>
<path opacity="0.1" d="M43.564 31.9269C43.564 31.8542 43.564 31.8178 43.6003 31.7451C43.564 31.8178 43.564 31.8906 43.564 31.9269Z" fill="#3E2723"/>
<path opacity="0.1" d="M34.2549 43.0178C34.4367 42.945 34.6185 42.9087 34.764 42.8359C34.6185 42.9087 34.4367 42.945 34.2549 43.0178Z" fill="#3E2723"/>
<path opacity="0.1" d="M35.0186 42.7639C35.164 42.6911 35.3458 42.6548 35.4913 42.582C35.3458 42.6184 35.164 42.6911 35.0186 42.7639Z" fill="#3E2723"/>
<path opacity="0.1" d="M36.8364 41.8542C36.9092 41.8178 36.9455 41.7815 37.0182 41.7451C36.9819 41.7815 36.9092 41.8178 36.8364 41.8542Z" fill="#3E2723"/>
<path opacity="0.1" d="M36.1094 42.2543C36.1821 42.218 36.2548 42.1816 36.3639 42.1089C36.2548 42.1816 36.1821 42.218 36.1094 42.2543Z" fill="#3E2723"/>
<path opacity="0.1" d="M30.2188 43.6729H30.2551C31.6006 43.6365 32.9097 43.4183 34.146 43.0547C32.9097 43.4547 31.6006 43.6729 30.2188 43.6729Z" fill="#3E2723"/>
<path d="M41.8549 36.8726C40.6912 38.8726 39.0185 40.5817 37.0185 41.7817C36.9458 41.818 36.9094 41.8544 36.8367 41.8907C36.6549 41.9998 36.5094 42.0726 36.3276 42.1817C36.2549 42.218 36.1822 42.2544 36.0731 42.3271C35.8912 42.4362 35.6731 42.5089 35.4549 42.618C35.3094 42.6907 35.1276 42.7635 34.9822 42.7998C34.9094 42.8362 34.8367 42.8726 34.764 42.8726C34.5822 42.9453 34.4367 42.9817 34.2549 43.0544C34.2185 43.0544 34.1822 43.0907 34.1458 43.0907C32.9094 43.4907 31.6003 43.7089 30.2549 43.7089H30.364C34.0003 43.7089 37.2731 42.2907 39.7094 39.9998C40.0731 39.6362 40.4003 39.2362 40.7276 38.8362L41.8549 36.8726Z" fill="white" fill-opacity="0.1"/>
<path opacity="0.1" d="M41.8549 36.8726C40.6912 38.8726 39.0185 40.5817 37.0185 41.7817C36.9458 41.818 36.9094 41.8544 36.8367 41.8907C36.6549 41.9998 36.5094 42.0726 36.3276 42.1817C36.2549 42.218 36.1822 42.2544 36.0731 42.3271C35.8912 42.4362 35.6731 42.5089 35.4549 42.618C35.3094 42.6907 35.1276 42.7635 34.9822 42.7998C34.9094 42.8362 34.8367 42.8726 34.764 42.8726C34.5822 42.9453 34.4367 42.9817 34.2549 43.0544C34.2185 43.0544 34.1822 43.0907 34.1458 43.0907C32.9094 43.4907 31.6003 43.7089 30.2549 43.7089H30.364C34.0003 43.7089 37.2731 42.2907 39.7094 39.9998C40.0731 39.6362 40.4003 39.2362 40.7276 38.8362L41.8549 36.8726Z" fill="#3E2723"/>
<path d="M43.3096 26.7638C43.2732 26.6183 43.2368 26.5092 43.2005 26.3638C43.455 27.2365 43.6005 28.1092 43.6732 29.0547V29.1274C43.7096 29.4183 43.7096 29.7456 43.7096 30.0365C43.7096 30.3274 43.7096 30.582 43.6732 30.8729V31.091C43.6732 31.3092 43.6368 31.5274 43.6005 31.7456C43.6005 31.8183 43.6005 31.8547 43.5641 31.9274C43.3096 33.7092 42.7277 35.3456 41.855 36.8365L40.7277 38.8001L40.5823 39.0547L28.6187 60.0001H29.0187L42.0005 37.2729C42.1823 36.9456 42.3641 36.582 42.5459 36.2183C43.3823 34.4729 43.855 32.5092 43.855 30.4365C43.8187 29.2001 43.6368 27.9638 43.3096 26.7638Z" fill="white" fill-opacity="0.2"/>
<path d="M30.0364 0.327273C46.5818 0.327273 59.9636 13.6727 60.0727 30.1818V30C60.0727 13.4545 46.6182 0 30.0364 0C13.4545 0 0 13.4545 0 30.0364V30.2182C0.109091 13.7091 13.4909 0.327273 30.0364 0.327273Z" fill="white" fill-opacity="0.2"/>
<path d="M30.0364 59.7459C46.5818 59.7459 59.9636 46.4004 60.0727 29.8913V30.0732C60.0727 46.655 46.6182 60.1095 30.0364 60.1095C13.4545 60.1095 0 46.6186 0 30.0368V29.855C0.109091 46.3641 13.4909 59.7459 30.0364 59.7459Z" fill="#3E2723" fill-opacity="0.15"/>
<path d="M30.0364 60.0727C46.625 60.0727 60.0727 46.625 60.0727 30.0364C60.0727 13.4477 46.625 0 30.0364 0C13.4477 0 0 13.4477 0 30.0364C0 46.625 13.4477 60.0727 30.0364 60.0727Z" fill="url(#paint7_radial_1772_37131)"/>
</g>
<defs>
<linearGradient id="paint0_linear_1772_37131" x1="9.04585" y1="25.8953" x2="26.9673" y2="15.4265" gradientUnits="userSpaceOnUse">
<stop stop-color="#A52714" stop-opacity="0.6"/>
<stop offset="0.66" stop-color="#A52714" stop-opacity="0"/>
</linearGradient>
<linearGradient id="paint1_linear_1772_37131" x1="36.7367" y1="50.6565" x2="16.8244" y2="38.9922" gradientUnits="userSpaceOnUse">
<stop stop-color="#055524" stop-opacity="0.4"/>
<stop offset="0.33" stop-color="#055524" stop-opacity="0"/>
</linearGradient>
<linearGradient id="paint2_linear_1772_37131" x1="28.0022" y1="16.7515" x2="33.0167" y2="38.71" gradientUnits="userSpaceOnUse">
<stop stop-color="#EA6100" stop-opacity="0.3"/>
<stop offset="0.66" stop-color="#EA6100" stop-opacity="0"/>
</linearGradient>
<linearGradient id="paint3_linear_1772_37131" x1="37.7665" y1="14.5222" x2="42.7811" y2="36.4808" gradientUnits="userSpaceOnUse">
<stop stop-color="#EA6100" stop-opacity="0.3"/>
<stop offset="0.66" stop-color="#EA6100" stop-opacity="0"/>
</linearGradient>
<radialGradient id="paint4_radial_1772_37131" cx="0" cy="0" r="1" gradientUnits="userSpaceOnUse" gradientTransform="translate(28.7358 16.3684) scale(28.7011)">
<stop stop-color="#3E2723" stop-opacity="0.2"/>
<stop offset="1" stop-color="#3E2723" stop-opacity="0"/>
</radialGradient>
<radialGradient id="paint5_radial_1772_37131" cx="0" cy="0" r="1" gradientUnits="userSpaceOnUse" gradientTransform="translate(4.73822 13.8322) scale(26.6415)">
<stop stop-color="#3E2723" stop-opacity="0.2"/>
<stop offset="1" stop-color="#3E2723" stop-opacity="0"/>
</radialGradient>
<radialGradient id="paint6_radial_1772_37131" cx="0" cy="0" r="1" gradientUnits="userSpaceOnUse" gradientTransform="translate(29.9854 30.088) scale(29.9956)">
<stop stop-color="#263238" stop-opacity="0.2"/>
<stop offset="1" stop-color="#263238" stop-opacity="0"/>
</radialGradient>
<radialGradient id="paint7_radial_1772_37131" cx="0" cy="0" r="1" gradientUnits="userSpaceOnUse" gradientTransform="translate(8.97309 8.19746) scale(60.336)">
<stop stop-color="white" stop-opacity="0.1"/>
<stop offset="1" stop-color="white" stop-opacity="0"/>
</radialGradient>
<clipPath id="clip0_1772_37131">
<rect width="60" height="60" fill="white"/>
</clipPath>
</defs>
</svg>
