<svg width="65" height="65" viewBox="0 0 65 65" fill="none" xmlns="http://www.w3.org/2000/svg">
<circle cx="32.5" cy="32.5" r="32.5" fill="#0061AE"/>
<path d="M37.8998 29.4065H27.7401C27.3402 29.4065 27.0131 29.0779 27.0131 28.6763C27.0131 28.2747 27.3402 27.9461 27.7401 27.9461H36.3277C34.3376 25.7555 33.1289 22.8439 33.1289 19.6401C33.1289 17.8876 33.4924 16.1717 34.1558 14.7113H26.0771V18.9921C26.0771 21.1096 24.3868 22.8347 22.2876 22.8347H17.9893V47.552C17.9893 49.1584 19.3342 50.4911 20.9336 50.4911H42.6798C44.2792 50.4911 45.6151 49.1584 45.6151 47.552V31.9896C45.5242 31.9896 45.506 31.9987 45.4515 31.9987C42.6162 31.9987 39.9809 31.0495 37.8998 29.4065ZM24.0597 44.0105H21.3789C20.979 44.0105 20.6519 43.6819 20.6519 43.2803C20.6519 42.8787 20.979 42.5501 21.3789 42.5501H24.0597C24.4595 42.5501 24.7867 42.8787 24.7867 43.2803C24.7867 43.6819 24.4595 44.0105 24.0597 44.0105ZM24.0597 36.7085H21.3789C20.979 36.7085 20.6519 36.3799 20.6519 35.9783C20.6519 35.5767 20.979 35.2481 21.3789 35.2481H24.0597C24.4595 35.2481 24.7867 35.5767 24.7867 35.9783C24.7867 36.3799 24.4595 36.7085 24.0597 36.7085ZM24.0597 29.4065H21.3789C20.979 29.4065 20.6519 29.0779 20.6519 28.6763C20.6519 28.2747 20.979 27.9461 21.3789 27.9461H24.0597C24.4595 27.9461 24.7867 28.2747 24.7867 28.6763C24.7867 29.0779 24.4595 29.4065 24.0597 29.4065ZM42.2345 44.0105H27.7401C27.3402 44.0105 27.0131 43.6819 27.0131 43.2803C27.0131 42.8787 27.3402 42.5501 27.7401 42.5501H42.2345C42.6344 42.5501 42.9615 42.8787 42.9615 43.2803C42.9615 43.6819 42.6344 44.0105 42.2345 44.0105ZM42.2345 36.7085H27.7401C27.3402 36.7085 27.0131 36.3799 27.0131 35.9783C27.0131 35.5767 27.3402 35.2481 27.7401 35.2481H42.2345C42.6344 35.2481 42.9615 35.5767 42.9615 35.9783C42.9615 36.3799 42.6344 36.7085 42.2345 36.7085Z" fill="white"/>
<path d="M24.6231 18.9921V15.7153L19.0525 21.3743H22.2876C23.5871 21.3743 24.6231 20.3064 24.6231 18.9921Z" fill="white"/>
<path d="M43.8151 12.1875C39.1745 12.1875 35.4 15.962 35.4 20.6027C35.4 25.2433 39.1745 29.0179 43.8151 29.0179C48.4558 29.0179 52.2303 25.2433 52.2303 20.6027C52.2373 15.969 48.4628 12.1875 43.8151 12.1875ZM46.9277 19.2577L43.5405 22.6448C43.4349 22.7505 43.294 22.8068 43.1391 22.8068C42.9912 22.8068 42.8433 22.7505 42.7377 22.6448L40.8364 20.7294C40.6181 20.5111 40.6181 20.152 40.8434 19.9337C41.0617 19.7154 41.4209 19.7154 41.6392 19.9407L43.1391 21.4548L46.1249 18.469C46.3432 18.2507 46.7023 18.2507 46.9206 18.469C47.146 18.6802 47.146 19.0394 46.9277 19.2577Z" fill="white"/>
</svg>
